<svg width="24" height="24" viewBox="0 0 24 24" fill="none" xmlns="http://www.w3.org/2000/svg">
<g id="expense 1">
<g id="23">
<path id="Vector" d="M21.7876 8.78271C21.7467 8.68358 21.6851 8.59437 21.6068 8.52108C21.5286 8.44779 21.4355 8.39214 21.3339 8.35787C21.2323 8.3236 21.1246 8.31151 21.0179 8.32242C20.9112 8.33333 20.8081 8.36698 20.7156 8.42111C20.623 8.47523 20.5432 8.54857 20.4814 8.63619C20.4195 8.7238 20.3772 8.82364 20.3573 8.92899C20.3373 9.03434 20.3402 9.14274 20.3657 9.24688C20.3912 9.35103 20.4387 9.44849 20.5051 9.53271C20.8264 10.0481 20.9978 10.6428 21.0001 11.2502C21.0065 11.3576 21.0065 11.4653 21.0001 11.5727C20.9391 12.109 20.7514 12.6232 20.4526 13.0727L20.3476 13.2227C19.7744 13.9592 19.0508 14.5652 18.2251 15.0002H18.1501L18.0751 15.0377C16.2006 16.0157 14.1144 16.5179 12.0001 16.5002C9.89026 16.5341 7.80431 16.05 5.92511 15.0902L5.85011 15.0527L5.75261 15.0002C4.94136 14.5593 4.23318 13.9508 3.67511 13.2152L3.58511 13.0877C3.28226 12.6389 3.08954 12.125 3.02261 11.5877C3.0081 11.4758 3.00058 11.3631 3.00011 11.2502C3.00011 8.40771 7.12511 6.00021 12.0001 6.00021C12.5287 6.00016 13.0569 6.02769 13.5826 6.08271C13.7815 6.1036 13.9806 6.04461 14.136 5.91873C14.2914 5.79284 14.3905 5.61038 14.4114 5.41146C14.4322 5.21255 14.3733 5.01349 14.2474 4.85807C14.1215 4.70265 13.939 4.6036 13.7401 4.58271C13.1619 4.5248 12.5811 4.49727 12.0001 4.50021C6.11261 4.50021 1.50011 7.50021 1.50011 11.2502V15.7502C1.49118 15.9076 1.49118 16.0653 1.50011 16.2227C1.59989 17.0763 1.91757 17.8899 2.42261 18.5852C3.10128 19.5123 3.97408 20.2802 4.98011 20.8352C7.1402 21.9788 9.55652 22.5519 12.0001 22.5002C14.4387 22.5385 16.8469 21.9552 18.9976 20.8052C20.0033 20.2498 20.8761 19.482 21.5551 18.5552C22.0626 17.8731 22.3878 17.0729 22.5001 16.2302C22.5095 16.0703 22.5095 15.9101 22.5001 15.7502V11.2502C22.4938 10.3779 22.2473 9.52413 21.7876 8.78271ZM21.0001 15.7502C21.0062 15.8576 21.0062 15.9653 21.0001 16.0727C20.9256 16.6667 20.7011 17.232 20.3476 17.7152C19.7849 18.4521 19.0715 19.0606 18.2551 19.5002C16.331 20.5225 14.1786 21.0387 12.0001 21.0002C9.82414 21.0377 7.67433 20.5216 5.75261 19.5002C4.94196 19.0616 4.23381 18.4557 3.67511 17.7227C3.31156 17.2373 3.0791 16.6665 3.00011 16.0652C2.99401 15.9603 2.99401 15.8551 3.00011 15.7502V14.7527C3.15761 14.9177 3.32261 15.0752 3.50261 15.2327L3.64511 15.3527C3.79511 15.4777 3.95261 15.6002 4.11761 15.7202L4.29761 15.8552C4.51511 16.0052 4.74011 16.1477 4.98011 16.2902L5.20511 16.4102C7.3058 17.4885 9.6391 18.0344 12.0001 18.0002C14.3667 18.0334 16.7052 17.4848 18.8101 16.4027L18.9976 16.3052C19.2451 16.1627 19.4701 16.0127 19.6951 15.8627L19.8751 15.7502C20.0451 15.6302 20.2051 15.5052 20.3551 15.3752L20.4976 15.2552C20.6776 15.0977 20.8426 14.9402 21.0001 14.7752V15.7502Z" fill="white"/>
<path id="Vector_2" d="M12.75 7.5C12.75 7.30109 12.671 7.11032 12.5303 6.96967C12.3897 6.82902 12.1989 6.75 12 6.75C11.8011 6.75 11.6103 6.82902 11.4697 6.96967C11.329 7.11032 11.25 7.30109 11.25 7.5C10.6533 7.5 10.081 7.73705 9.65901 8.15901C9.23705 8.58097 9 9.15326 9 9.75C9 10.3467 9.23705 10.919 9.65901 11.341C10.081 11.7629 10.6533 12 11.25 12V13.5H9.75C9.55109 13.5 9.36032 13.579 9.21967 13.7197C9.07902 13.8603 9 14.0511 9 14.25C9 14.4489 9.07902 14.6397 9.21967 14.7803C9.36032 14.921 9.55109 15 9.75 15H11.25C11.25 15.1989 11.329 15.3897 11.4697 15.5303C11.6103 15.671 11.8011 15.75 12 15.75C12.1989 15.75 12.3897 15.671 12.5303 15.5303C12.671 15.3897 12.75 15.1989 12.75 15C13.3467 15 13.919 14.7629 14.341 14.341C14.7629 13.919 15 13.3467 15 12.75C15 12.1533 14.7629 11.581 14.341 11.159C13.919 10.7371 13.3467 10.5 12.75 10.5V9H14.25C14.4489 9 14.6397 8.92098 14.7803 8.78033C14.921 8.63968 15 8.44891 15 8.25C15 8.05109 14.921 7.86032 14.7803 7.71967C14.6397 7.57902 14.4489 7.5 14.25 7.5H12.75ZM13.5 12.75C13.5 12.9489 13.421 13.1397 13.2803 13.2803C13.1397 13.421 12.9489 13.5 12.75 13.5V12C12.9489 12 13.1397 12.079 13.2803 12.2197C13.421 12.3603 13.5 12.5511 13.5 12.75ZM11.25 10.5C11.0511 10.5 10.8603 10.421 10.7197 10.2803C10.579 10.1397 10.5 9.94891 10.5 9.75C10.5 9.55109 10.579 9.36032 10.7197 9.21967C10.8603 9.07902 11.0511 9 11.25 9V10.5Z" fill="white"/>
<path id="Vector_3" d="M16.5002 6.00011C16.5989 6.00068 16.6968 5.98176 16.7881 5.94443C16.8795 5.90711 16.9626 5.85212 17.0327 5.78261L18.0002 4.80761V9.00011C18.0002 9.19902 18.0792 9.38978 18.2199 9.53044C18.3605 9.67109 18.5513 9.75011 18.7502 9.75011C18.9491 9.75011 19.1399 9.67109 19.2805 9.53044C19.4212 9.38978 19.5002 9.19902 19.5002 9.00011V4.80761L20.4677 5.77511C20.6112 5.89798 20.7957 5.96218 20.9845 5.95489C21.1732 5.9476 21.3523 5.86935 21.4859 5.73578C21.6194 5.60221 21.6977 5.42315 21.705 5.2344C21.7123 5.04564 21.6481 4.86108 21.5252 4.71761L19.2752 2.46761C19.1347 2.32792 18.9446 2.24951 18.7465 2.24951C18.5483 2.24951 18.3582 2.32792 18.2177 2.46761L15.9677 4.71761C15.8619 4.82251 15.7898 4.95653 15.7605 5.1026C15.7312 5.24866 15.7461 5.40013 15.8032 5.53772C15.8603 5.6753 15.9571 5.79275 16.0813 5.87511C16.2054 5.95746 16.3512 6.00097 16.5002 6.00011Z" fill="white"/>
</g>
</g>
</svg>
