<svg width="230" height="201" viewBox="0 0 230 201" fill="none" xmlns="http://www.w3.org/2000/svg">
<g id="Group 37296">
<g id="Group 37295">
<g id="23">
<g id="Background 87">
<path id="Vector" d="M176.112 0.870014C203.789 4.59539 237.196 37.3341 205.996 84.367C205.996 84.367 187.754 118.645 184.899 166.751C182.044 214.877 -5.6012 218.157 0.128589 130.934C1.52561 109.675 5.83816 81.2693 49.3481 59.9699C92.8581 38.6704 76.1546 38.5895 91.7445 21.0761C103.751 7.5919 146.006 -3.19956 176.112 0.870014Z" fill="url(#paint0_linear_3_659)"/>
</g>
<g id="Money Icon 4">
<path id="Vector_2" d="M187.693 153.61H140.701C139.689 153.61 138.858 154.441 138.858 155.453V180.822C138.858 181.834 139.689 182.664 140.701 182.664H187.693C188.706 182.664 189.536 181.834 189.536 180.822V155.453C189.556 154.441 188.726 153.61 187.693 153.61Z" fill="url(#paint1_linear_3_659)"/>
<path id="Vector_3" d="M145.601 156.081H182.794C182.794 158.105 184.434 159.725 186.438 159.725V176.53C184.413 176.53 182.794 178.17 182.794 180.174H145.601C145.601 178.149 143.961 176.53 141.956 176.53V159.725C143.981 159.745 145.601 158.105 145.601 156.081ZM178.117 171.529C180.202 171.731 181.943 169.99 181.741 167.905C181.579 166.366 180.344 165.111 178.785 164.949C176.699 164.746 174.958 166.487 175.161 168.573C175.323 170.112 176.578 171.367 178.117 171.529ZM164.288 176.469C167.467 176.469 170.038 172.744 170.038 168.127C170.038 163.511 167.467 159.786 164.288 159.786C161.11 159.786 158.538 163.511 158.538 168.127C158.538 172.744 161.11 176.469 164.288 176.469ZM149.61 171.529C151.695 171.731 153.436 169.99 153.234 167.905C153.072 166.366 151.837 165.111 150.278 164.949C148.192 164.746 146.451 166.487 146.654 168.573C146.816 170.112 148.071 171.367 149.61 171.529Z" fill="white"/>
</g>
<g id="Coin Icon 6">
<path id="Vector_4" d="M196.318 50.8792C206.628 50.8792 214.986 42.5216 214.986 32.2119C214.986 21.9021 206.628 13.5444 196.318 13.5444C186.009 13.5444 177.651 21.9021 177.651 32.2119C177.651 42.5216 186.009 50.8792 196.318 50.8792Z" fill="url(#paint2_linear_3_659)"/>
<path id="Vector_5" d="M196.318 47.5183C204.772 47.5183 211.625 40.6654 211.625 32.2119C211.625 23.7583 204.772 16.9054 196.318 16.9054C187.865 16.9054 181.012 23.7583 181.012 32.2119C181.012 40.6654 187.865 47.5183 196.318 47.5183Z" fill="#F27694"/>
<g id="Group">
<path id="Vector_6" d="M195.205 42.4768V40.0472C193.626 40.0067 192.046 39.5411 191.135 38.9337L191.803 36.5648C192.775 37.152 194.193 37.6784 195.711 37.6784C197.29 37.6784 198.363 36.909 198.363 35.6942C198.363 34.5604 197.493 33.8315 195.63 33.1634C192.998 32.2118 191.277 30.997 191.277 28.6686C191.277 26.5023 192.775 24.842 195.326 24.3966V21.9265H197.392V24.2549C198.971 24.2954 200.044 24.68 200.854 25.085L200.186 27.3931C199.578 27.1096 198.485 26.5428 196.764 26.5428C195.002 26.5428 194.375 27.4538 194.375 28.3042C194.375 29.3368 195.286 29.9037 197.412 30.7743C200.226 31.8271 201.481 33.1836 201.481 35.4107C201.481 37.5366 200.003 39.4196 197.23 39.8853V42.4768H195.205Z" fill="white"/>
</g>
</g>
<g id="Paper 6">
<g id="Group_2">
<path id="Vector_7" d="M195.589 66.6715H214.945C223.064 66.6715 229.664 73.2516 229.664 81.3908V105.545H195.67L195.589 66.6715Z" fill="#7D3051"/>
<path id="Vector_8" d="M162.122 140.875H183.199C191.419 140.875 198.06 134.214 198.06 126.014V82.0589C198.06 80.1153 198.444 78.1716 199.234 76.3899C200.732 72.9885 204.093 68.514 211.726 66.6715H162.122V140.875Z" fill="url(#paint3_linear_3_659)"/>
<path id="Vector_9" d="M122.459 20.5902H149.589C159.004 20.5902 166.637 28.2232 166.637 37.6379V125.265C166.637 127.148 167.022 128.991 167.791 130.712C169.39 134.295 173.156 139.256 182.004 140.896H122.54L122.459 20.5902Z" fill="#7C3051"/>
<path id="Vector_10" d="M147.504 20.6105C147.504 20.6105 138.089 20.9142 132.744 28.9116C130.739 31.9081 129.727 35.431 129.727 39.0349V151.363C129.727 159.401 123.208 165.92 115.17 165.92H46.0681V34.6009C46.0681 26.8262 52.3648 20.5295 60.1395 20.5497L147.504 20.6105Z" fill="url(#paint4_linear_3_659)"/>
<path id="Vector_11" d="M99.2559 138.689V151.586C99.2559 155.19 100.612 158.672 103.103 161.264C105.107 163.349 108.144 165.232 112.7 165.92H28.6357C25.6595 165.92 22.7237 165.171 20.1322 163.693C17.8848 162.398 15.5159 160.373 13.7342 157.194C12.236 154.522 11.5071 151.485 11.5071 148.427V138.668H99.2559V138.689Z" fill="url(#paint5_linear_3_659)"/>
</g>
<path id="Vector_12" d="M88.0799 67.7649C88.0799 69.1416 86.9664 70.2552 85.5896 70.2552H59.3905C58.0138 70.2552 56.9001 69.1416 56.9001 67.7649C56.9001 66.3881 58.0138 65.2745 59.3905 65.2745H85.5896C86.9664 65.2745 88.0799 66.3881 88.0799 67.7649Z" fill="url(#paint6_linear_3_659)"/>
<path id="Vector_13" opacity="0.4" d="M119.158 82.7069C119.158 84.0837 118.045 85.1972 116.668 85.1972H59.3905C58.0138 85.1972 56.9001 84.0837 56.9001 82.7069C56.9001 81.3301 58.0138 80.2166 59.3905 80.2166H116.668C118.045 80.2166 119.158 81.3301 119.158 82.7069Z" fill="white"/>
<path id="Vector_14" opacity="0.4" d="M119.158 97.6489C119.158 99.0257 118.045 100.139 116.668 100.139H59.3905C58.0138 100.139 56.9001 99.0257 56.9001 97.6489C56.9001 96.2721 58.0138 95.1586 59.3905 95.1586H116.668C118.045 95.1586 119.158 96.2721 119.158 97.6489Z" fill="white"/>
<path id="Vector_15" opacity="0.4" d="M119.158 112.591C119.158 113.968 118.045 115.081 116.668 115.081H59.3905C58.0138 115.081 56.9001 113.968 56.9001 112.591C56.9001 111.214 58.0138 110.101 59.3905 110.101H116.668C118.045 110.101 119.158 111.214 119.158 112.591Z" fill="white"/>
<path id="Vector_16" d="M59.0059 57.0746H78.5843C79.6978 57.0746 80.6089 56.1635 80.6089 55.0499V37.5569C80.6089 36.4433 79.6978 35.5322 78.5843 35.5322H59.0059C57.8923 35.5322 56.9812 36.4433 56.9812 37.5569V55.0499C56.9812 56.1635 57.8923 57.0746 59.0059 57.0746Z" fill="#5A2A68"/>
<g id="Group_3">
<path id="Vector_17" d="M67.8535 54.9285V52.8836C66.5173 52.8431 65.2013 52.4584 64.4319 51.9523L64.9988 49.9681C65.8289 50.454 67.0032 50.8994 68.299 50.8994C69.6353 50.8994 70.5261 50.2515 70.5261 49.2392C70.5261 48.2876 69.7973 47.6802 68.218 47.1133C66.0112 46.3034 64.5737 45.2911 64.5737 43.3474C64.5737 41.5252 65.8491 40.1484 67.975 39.7638V37.6986H69.696V39.6625C71.0323 39.703 71.9231 40.027 72.6115 40.3509L72.0446 42.2946C71.5385 42.0719 70.6071 41.5859 69.1696 41.5859C67.6916 41.5859 67.1652 42.3553 67.1652 43.064C67.1652 43.9346 67.9346 44.4205 69.7163 45.1291C72.0851 46.02 73.1379 47.1538 73.1379 49.0367C73.1379 50.8387 71.9029 52.4179 69.5745 52.7823V54.9487H67.8535V54.9285Z" fill="white"/>
</g>
</g>
<g id="Checklist Icon 9">
<path id="Vector_18" d="M32.1386 132.939C45.322 132.939 56.0093 122.251 56.0093 109.068C56.0093 95.8844 45.322 85.1971 32.1386 85.1971C18.9551 85.1971 8.26782 95.8844 8.26782 109.068C8.26782 122.251 18.9551 132.939 32.1386 132.939Z" fill="url(#paint7_linear_3_659)"/>
<path id="Vector_19" d="M32.1386 128.626C42.9403 128.626 51.6968 119.87 51.6968 109.068C51.6968 98.2661 42.9403 89.5096 32.1386 89.5096C21.3369 89.5096 12.5803 98.2661 12.5803 109.068C12.5803 119.87 21.3369 128.626 32.1386 128.626Z" fill="#D83F81"/>
<g id="Group_4">
<path id="Vector_20" d="M29.061 117.025L21.7318 109.959C20.9624 109.21 20.9421 107.975 21.6912 107.205C22.4404 106.436 23.6754 106.416 24.4448 107.165L29.1218 111.68L39.8525 101.678C40.6421 100.949 41.8772 100.99 42.6061 101.779C43.3349 102.569 43.2944 103.804 42.5048 104.533L29.061 117.025Z" fill="white"/>
</g>
</g>
<g id="Small Elements 85">
<g id="Group_5">
<g id="Group_6">
<path id="Vector_21" d="M213.103 146.362C216.099 146.362 218.549 143.912 218.549 140.916C218.549 137.919 216.099 135.47 213.103 135.47C210.106 135.47 207.656 137.919 207.656 140.916C207.656 143.912 210.086 146.362 213.103 146.362ZM213.103 137.879C214.763 137.879 216.12 139.235 216.12 140.896C216.12 142.556 214.763 143.912 213.103 143.912C211.443 143.912 210.086 142.556 210.086 140.896C210.066 139.235 211.422 137.879 213.103 137.879Z" fill="#F4C6DC"/>
</g>
</g>
<path id="Vector_22" d="M36.1272 7.53116H41.9784V2.08484H44.408V7.53116H50.2593V9.94054H44.408V15.3869H41.9784V9.94054H36.1272V7.53116Z" fill="#EACCF2"/>
</g>
</g>
</g>
</g>
<defs>
<linearGradient id="paint0_linear_3_659" x1="218.561" y1="100.17" x2="-0.000299627" y2="100.17" gradientUnits="userSpaceOnUse">
<stop stop-color="#F4EAFD"/>
<stop offset="1" stop-color="#FCEFF5"/>
</linearGradient>
<linearGradient id="paint1_linear_3_659" x1="189.552" y1="168.143" x2="138.857" y2="168.143" gradientUnits="userSpaceOnUse">
<stop stop-color="#D83F81"/>
<stop offset="1" stop-color="#BE82F6"/>
</linearGradient>
<linearGradient id="paint2_linear_3_659" x1="177.647" y1="32.2125" x2="214.978" y2="32.2125" gradientUnits="userSpaceOnUse">
<stop stop-color="#FB97A3"/>
<stop offset="1" stop-color="#F9749A"/>
</linearGradient>
<linearGradient id="paint3_linear_3_659" x1="206.267" y1="155.512" x2="161.559" y2="54.2993" gradientUnits="userSpaceOnUse">
<stop offset="0.353242" stop-color="#B32261"/>
<stop offset="1" stop-color="#AE9EC0"/>
</linearGradient>
<linearGradient id="paint4_linear_3_659" x1="104.5" y1="150.5" x2="79.5" y2="28.5" gradientUnits="userSpaceOnUse">
<stop stop-color="#D74484"/>
<stop offset="1" stop-color="#AE9EC0"/>
</linearGradient>
<linearGradient id="paint5_linear_3_659" x1="20.4726" y1="162.937" x2="100.392" y2="142.532" gradientUnits="userSpaceOnUse">
<stop stop-color="#D83F81"/>
<stop offset="1" stop-color="#A3B5CF"/>
</linearGradient>
<linearGradient id="paint6_linear_3_659" x1="56.9096" y1="67.7659" x2="88.0859" y2="67.7659" gradientUnits="userSpaceOnUse">
<stop stop-color="#FB97A3"/>
<stop offset="1" stop-color="#F9749A"/>
</linearGradient>
<linearGradient id="paint7_linear_3_659" x1="8.26685" y1="109.077" x2="55.9961" y2="109.077" gradientUnits="userSpaceOnUse">
<stop stop-color="#B590B7"/>
<stop offset="1" stop-color="#FF91C1"/>
</linearGradient>
</defs>
</svg>
