<svg width="66" height="66" viewBox="0 0 66 66" fill="none" xmlns="http://www.w3.org/2000/svg">
<g id="Group 38359">
<g id="Group 37411">
<g id="Group 37370">
<g id="Group 37377">
<rect id="Rectangle 3201" width="66" height="66" rx="18" fill="white"/>
</g>
</g>
</g>
<g id="23">
<path id="Vector" d="M48.8358 26.9672C48.7697 26.8008 48.6699 26.651 48.5433 26.528C48.4167 26.405 48.2661 26.3116 48.1017 26.254C47.9373 26.1965 47.763 26.1762 47.5904 26.1945C47.4178 26.2128 47.251 26.2693 47.1013 26.3602C46.9515 26.451 46.8223 26.5742 46.7223 26.7212C46.6223 26.8683 46.5538 27.0359 46.5216 27.2128C46.4893 27.3896 46.4939 27.5716 46.5352 27.7464C46.5764 27.9212 46.6534 28.0849 46.7607 28.2262C47.2806 29.0915 47.5579 30.0898 47.5616 31.1094C47.572 31.2897 47.572 31.4705 47.5616 31.6508C47.4629 32.5511 47.1593 33.4142 46.6758 34.1688L46.5059 34.4206C45.5784 35.657 44.4077 36.6742 43.0717 37.4045H42.9504L42.829 37.4675C39.796 39.1092 36.4206 39.9523 32.9997 39.9226C29.586 39.9795 26.211 39.1668 23.1704 37.5556L23.0491 37.4926L22.8913 37.4045C21.5787 36.6643 20.4329 35.6429 19.53 34.408L19.3843 34.194C18.8943 33.4406 18.5825 32.5779 18.4742 31.676C18.4508 31.4881 18.4386 31.2988 18.4378 31.1094C18.4378 26.3377 25.112 22.2962 32.9997 22.2962C33.855 22.2961 34.7096 22.3424 35.5602 22.4347C35.882 22.4698 36.2041 22.3708 36.4556 22.1594C36.707 21.9481 36.8673 21.6418 36.9011 21.3079C36.9349 20.974 36.8395 20.6398 36.6358 20.3789C36.4321 20.118 36.1369 19.9517 35.815 19.9167C34.8796 19.8195 33.9398 19.7732 32.9997 19.7782C23.4738 19.7782 16.0108 24.8143 16.0108 31.1094V38.6635C15.9964 38.9277 15.9964 39.1925 16.0108 39.4567C16.1723 40.8896 16.6863 42.2554 17.5034 43.4226C18.6015 44.979 20.0137 46.268 21.6414 47.1997C25.1365 49.1194 29.046 50.0815 32.9997 49.9947C36.9453 50.059 40.8417 49.0798 44.3216 47.1493C45.9489 46.2169 47.3609 44.9281 48.4596 43.3723C49.2807 42.2272 49.8069 40.884 49.9886 39.4693C50.0038 39.2009 50.0038 38.9319 49.9886 38.6635V31.1094C49.9784 29.645 49.5796 28.2118 48.8358 26.9672ZM47.5616 38.6635C47.5716 38.8438 47.5716 39.0246 47.5616 39.2049C47.4411 40.2021 47.0778 41.151 46.5059 41.9622C45.5954 43.1992 44.4412 44.2207 43.1202 44.9586C40.0071 46.6748 36.5245 47.5413 32.9997 47.4767C29.479 47.5397 26.0007 46.6732 22.8913 44.9586C21.5797 44.2224 20.4339 43.2053 19.53 41.9748C18.9417 41.1599 18.5656 40.2017 18.4378 39.1923C18.428 39.0162 18.428 38.8396 18.4378 38.6635V36.989C18.6927 37.266 18.9596 37.5304 19.2509 37.7948L19.4814 37.9962C19.7241 38.2061 19.979 38.4117 20.2459 38.6132L20.5372 38.8398C20.8891 39.0916 21.2531 39.3308 21.6414 39.57L22.0055 39.7715C25.4044 41.5815 29.1796 42.4981 32.9997 42.4406C36.8288 42.4962 40.6124 41.5754 44.0182 39.7589L44.3216 39.5952C44.7221 39.356 45.0861 39.1042 45.4502 38.8524L45.7414 38.6635C46.0164 38.4621 46.2753 38.2522 46.518 38.034L46.7486 37.8326C47.0398 37.5682 47.3068 37.3038 47.5616 37.0268V38.6635Z" fill="#DBB365"/>
<path id="Vector_2" d="M34.2132 24.8142C34.2132 24.4803 34.0854 24.16 33.8578 23.9239C33.6302 23.6878 33.3216 23.5552 32.9997 23.5552C32.6779 23.5552 32.3692 23.6878 32.1417 23.9239C31.9141 24.16 31.7862 24.4803 31.7862 24.8142C30.8207 24.8142 29.8947 25.2121 29.212 25.9205C28.5293 26.6288 28.1458 27.5895 28.1458 28.5913C28.1458 29.593 28.5293 30.5537 29.212 31.2621C29.8947 31.9704 30.8207 32.3683 31.7862 32.3683V34.8864H29.3592C29.0374 34.8864 28.7287 35.019 28.5012 35.2551C28.2736 35.4913 28.1458 35.8115 28.1458 36.1454C28.1458 36.4793 28.2736 36.7996 28.5012 37.0357C28.7287 37.2718 29.0374 37.4044 29.3592 37.4044H31.7862C31.7862 37.7383 31.9141 38.0586 32.1417 38.2947C32.3692 38.5308 32.6779 38.6635 32.9997 38.6635C33.3216 38.6635 33.6302 38.5308 33.8578 38.2947C34.0854 38.0586 34.2132 37.7383 34.2132 37.4044C35.1787 37.4044 36.1047 37.0065 36.7874 36.2982C37.4701 35.5898 37.8537 34.6291 37.8537 33.6274C37.8537 32.6256 37.4701 31.6649 36.7874 30.9566C36.1047 30.2482 35.1787 29.8503 34.2132 29.8503V27.3322H36.6402C36.962 27.3322 37.2707 27.1996 37.4983 26.9635C37.7258 26.7274 37.8537 26.4071 37.8537 26.0732C37.8537 25.7393 37.7258 25.4191 37.4983 25.183C37.2707 24.9468 36.962 24.8142 36.6402 24.8142H34.2132ZM35.4267 33.6274C35.4267 33.9613 35.2989 34.2815 35.0713 34.5176C34.8437 34.7537 34.535 34.8864 34.2132 34.8864V32.3683C34.535 32.3683 34.8437 32.501 35.0713 32.7371C35.2989 32.9732 35.4267 33.2935 35.4267 33.6274ZM31.7862 29.8503C31.4644 29.8503 31.1557 29.7176 30.9282 29.4815C30.7006 29.2454 30.5727 28.9252 30.5727 28.5913C30.5727 28.2574 30.7006 27.9371 30.9282 27.701C31.1557 27.4649 31.4644 27.3322 31.7862 27.3322V29.8503Z" fill="#DBB365"/>
<path id="Vector_3" d="M40.2808 22.2961C40.4406 22.2971 40.5989 22.2653 40.7467 22.2027C40.8946 22.14 41.029 22.0477 41.1424 21.931L42.7078 20.2943V27.3322C42.7078 27.6661 42.8357 27.9864 43.0632 28.2225C43.2908 28.4586 43.5995 28.5912 43.9213 28.5912C44.2432 28.5912 44.5518 28.4586 44.7794 28.2225C45.007 27.9864 45.1348 27.6661 45.1348 27.3322V20.2943L46.7002 21.9184C46.9323 22.1247 47.231 22.2325 47.5364 22.2202C47.8418 22.208 48.1315 22.0766 48.3476 21.8524C48.5637 21.6282 48.6903 21.3276 48.7021 21.0107C48.7139 20.6939 48.61 20.384 48.4112 20.1432L44.7708 16.3661C44.5434 16.1316 44.2358 16 43.9152 16C43.5947 16 43.2871 16.1316 43.0597 16.3661L39.4193 20.1432C39.2481 20.3193 39.1314 20.5443 39.084 20.7895C39.0366 21.0347 39.0606 21.2889 39.1531 21.5199C39.2455 21.7509 39.4021 21.948 39.603 22.0863C39.8038 22.2245 40.0398 22.2976 40.2808 22.2961Z" fill="#DBB365"/>
</g>
</g>
</svg>
