<svg width="66" height="66" viewBox="0 0 66 66" fill="none" xmlns="http://www.w3.org/2000/svg">
<g id="Group 38360">
<g id="Group 37412">
<g id="Group 37378">
<rect id="Rectangle 3202" width="66" height="66" rx="18" fill="white"/>
</g>
</g>
<g id="Page 1">
<g id="withdrawal">
<path id="Rectangle" d="M20.7273 18.6154V21.2307H45.2727V18.6154H20.7273ZM20.7273 16H45.2727C46.779 16 48 17.1709 48 18.6154V21.2307C48 22.6752 46.779 23.8461 45.2727 23.8461H20.7273C19.221 23.8461 18 22.6752 18 21.2307V18.6154C18 17.1709 19.221 16 20.7273 16Z" fill="#7597D3"/>
<path id="Rectangle_2" d="M42.5454 23.8463H23.4545V46.0769C23.4545 46.7991 24.065 47.3846 24.8182 47.3846H41.1818C41.9349 47.3846 42.5454 46.7991 42.5454 46.0769V23.8463ZM45.2727 46.0769C45.2727 48.2435 43.4411 50 41.1818 50H24.8182C22.5588 50 20.7273 48.2435 20.7273 46.0769V21.231H45.2727V46.0769Z" fill="#7597D3"/>
<path id="Path 11" d="M38.4546 35.6156C38.4546 36.3378 37.8441 36.9232 37.091 36.9232C36.3378 36.9232 35.7273 36.3378 35.7273 35.6156V32.3464C35.7273 31.9852 35.4221 31.6925 35.0455 31.6925C34.6689 31.6925 34.3637 31.9852 34.3637 32.3464V33.654C34.3637 35.4596 32.8374 36.9232 30.9546 36.9232C29.0718 36.9232 27.5455 35.4596 27.5455 33.654V30.3848C27.5455 29.6626 28.156 29.0771 28.9091 29.0771C29.6622 29.0771 30.2728 29.6626 30.2728 30.3848V33.654C30.2728 34.0151 30.578 34.3079 30.9546 34.3079C31.3311 34.3079 31.6364 34.0151 31.6364 33.654V32.3464C31.6364 30.5408 33.1627 29.0771 35.0455 29.0771C36.9283 29.0771 38.4546 30.5408 38.4546 32.3464V35.6156Z" fill="#7597D3"/>
<path id="Path 12" d="M39.818 31.6924C40.5711 31.6924 41.1816 32.2779 41.1816 33.0001C41.1816 33.7223 40.5711 34.3078 39.818 34.3078H37.0907C36.3376 34.3078 35.7271 33.7223 35.7271 33.0001C35.7271 32.2779 36.3376 31.6924 37.0907 31.6924H39.818Z" fill="#7597D3"/>
<path id="Path 13" d="M26.1818 34.3078C25.4287 34.3078 24.8181 33.7223 24.8181 33.0001C24.8181 32.2779 25.4287 31.6924 26.1818 31.6924H28.9091C29.6622 31.6924 30.2727 32.2779 30.2727 33.0001C30.2727 33.7223 29.6622 34.3078 28.9091 34.3078H26.1818Z" fill="#7597D3"/>
<path id="Path 14" d="M34.3635 25.154C34.3635 25.8762 33.753 26.4617 32.9999 26.4617C32.2468 26.4617 31.6362 25.8762 31.6362 25.154V22.5386C31.6362 21.8164 32.2468 21.231 32.9999 21.231C33.753 21.231 34.3635 21.8164 34.3635 22.5386V25.154Z" fill="#7597D3"/>
<path id="Path 14 Copy" d="M34.3635 43.4611C34.3635 44.1834 33.753 44.7688 32.9999 44.7688C32.2468 44.7688 31.6362 44.1834 31.6362 43.4611V40.8458C31.6362 40.1236 32.2468 39.5381 32.9999 39.5381C33.753 39.5381 34.3635 40.1236 34.3635 40.8458V43.4611Z" fill="#7597D3"/>
</g>
</g>
</g>
</svg>
