<svg width="66" height="66" viewBox="0 0 66 66" fill="none" xmlns="http://www.w3.org/2000/svg">
<g id="Group 37413">
<g id="Group 38361">
<g id="Group 37379">
<rect id="Rectangle 3203" width="66" height="66" rx="18" fill="white"/>
</g>
<g id="Group 37406">
<path id="Vector" d="M42.9389 34.124H37.1063C36.3649 34.124 35.7665 34.6873 35.7665 35.385C35.7665 36.0828 36.3649 36.646 37.1063 36.646H42.9389C43.6802 36.646 44.2787 36.0828 44.2787 35.385C44.2787 34.6873 43.6802 34.124 42.9389 34.124Z" fill="#D7866F"/>
<path id="Vector_2" d="M49.9732 21.305C49.9732 21.2304 49.9732 21.1558 49.9553 21.0813C49.9553 21.0067 49.9374 20.9321 49.9285 20.8575C49.9217 20.7853 49.9098 20.714 49.8927 20.6444C49.8831 20.5719 49.8681 20.5006 49.848 20.4312L49.7944 20.2181C49.7765 20.1435 49.7586 20.0796 49.7318 20.005C49.7139 19.9304 49.6871 19.8665 49.6692 19.8025C49.6513 19.7386 49.6245 19.664 49.5977 19.6001C49.5709 19.5361 49.544 19.4722 49.5172 19.3976C49.4904 19.3337 49.4546 19.2697 49.4278 19.2058C49.3921 19.1419 49.3652 19.0779 49.3295 19.014C49.2937 18.95 49.258 18.8968 49.2222 18.8328C49.1884 18.7714 49.1495 18.7143 49.106 18.6623C49.0702 18.6091 49.0255 18.5451 48.9808 18.4918C48.9361 18.4386 48.9003 18.3853 48.8556 18.332C48.8109 18.2787 48.7662 18.2254 48.7215 18.1828C48.6768 18.1295 48.6321 18.0869 48.5785 18.0336L48.4354 17.8951C48.3818 17.8525 48.3371 17.8099 48.2835 17.7672C48.2319 17.7243 48.1781 17.6852 48.1225 17.65C48.0158 17.5746 47.9053 17.507 47.7917 17.4476C47.7381 17.4156 47.6755 17.3836 47.6219 17.3623C47.5682 17.3303 47.5057 17.309 47.452 17.2877C47.3894 17.2664 47.3358 17.2344 47.2732 17.2131L47.0944 17.1492C47.0318 17.1279 46.9782 17.1172 46.9156 17.0959C46.853 17.0852 46.7904 17.0639 46.7368 17.0533L46.549 17.0213C46.4865 17.0107 46.4239 17.0107 46.3613 17H19.6119C19.5493 17 19.4867 17 19.4241 17.0213C19.3616 17.0213 19.299 17.0426 19.2364 17.0533C19.1738 17.0639 19.1112 17.0746 19.0576 17.0959C18.995 17.1066 18.9324 17.1279 18.8788 17.1492L18.7 17.2131C18.6374 17.2344 18.5837 17.2557 18.5212 17.2877C18.4586 17.309 18.4049 17.341 18.3513 17.3623C18.2977 17.3836 18.2351 17.4156 18.1814 17.4476C18.1278 17.4795 18.0742 17.5115 18.0116 17.5435C17.9579 17.5754 17.9043 17.618 17.8506 17.65C17.797 17.6926 17.7434 17.7246 17.6897 17.7672C17.6361 17.8099 17.5914 17.8525 17.5377 17.8951C17.4841 17.9377 17.4394 17.9804 17.3947 18.0336C17.35 18.0763 17.2963 18.1295 17.2516 18.1828C17.2069 18.2361 17.1622 18.2787 17.1175 18.332C17.0728 18.3853 17.0281 18.4386 16.9924 18.4918C16.9477 18.5451 16.9119 18.5984 16.8672 18.6623L16.751 18.8328C16.7152 18.8968 16.6795 18.9501 16.6437 19.014C16.6079 19.0779 16.5722 19.1419 16.5454 19.2058C16.4821 19.333 16.4254 19.4647 16.3755 19.6001C16.3487 19.664 16.3219 19.7386 16.304 19.8025C16.2861 19.8665 16.2593 19.9411 16.2414 20.005C16.2235 20.0796 16.1967 20.1435 16.1788 20.2181L16.1252 20.4312C16.1073 20.5058 16.0983 20.5698 16.0805 20.6444C16.0715 20.7189 16.0536 20.7935 16.0447 20.8575L16.0179 21.0813C16.0179 21.1558 16.0089 21.2304 16 21.305V44.695C16 44.7696 16 44.8442 16.0179 44.9187C16.0358 44.9933 16.0358 45.0679 16.0447 45.1425C16.0536 45.2171 16.0626 45.2917 16.0805 45.3556C16.0894 45.4302 16.1073 45.5048 16.1252 45.5688L16.1788 45.7819C16.1967 45.8565 16.2146 45.9204 16.2414 45.995C16.2593 46.0696 16.2861 46.1335 16.304 46.1975C16.3308 46.2614 16.3487 46.336 16.3755 46.3999C16.4023 46.4639 16.4291 46.5278 16.456 46.6024C16.4828 46.6663 16.5185 46.7303 16.5454 46.7942C16.5811 46.8581 16.6079 46.9221 16.6437 46.986C16.6795 47.0499 16.7152 47.1032 16.751 47.1672C16.7867 47.2311 16.8225 47.2844 16.8672 47.3377C16.903 47.3909 16.9477 47.4549 16.9924 47.5082C17.0371 47.5614 17.0728 47.6147 17.1175 47.668C17.1622 47.7213 17.2069 47.7746 17.2516 47.8172C17.2963 47.8705 17.341 47.9131 17.3947 47.9664L17.5377 48.1049C17.5914 48.1475 17.6361 48.1901 17.6897 48.2328C17.7434 48.2754 17.797 48.318 17.8506 48.35C17.9574 48.4254 18.0678 48.493 18.1814 48.5524C18.2351 48.5844 18.2977 48.6164 18.3513 48.6377C18.4049 48.6697 18.4675 48.691 18.5212 48.7123C18.5837 48.7336 18.6374 48.7656 18.7 48.7869L18.8788 48.8508C18.9414 48.8721 18.995 48.8828 19.0576 48.9041C19.1202 48.9148 19.1828 48.9361 19.2364 48.9467L19.4241 48.9787C19.4867 48.9787 19.5493 48.9893 19.6119 49H46.3881C46.4507 49 46.5133 49 46.5759 48.9787C46.6384 48.9787 46.701 48.9574 46.7636 48.9467C46.8262 48.9361 46.8888 48.9254 46.9424 48.9041C47.005 48.8934 47.0676 48.8721 47.1212 48.8508L47.3 48.7869C47.3626 48.7656 47.4163 48.7443 47.4788 48.7123C47.5414 48.691 47.5951 48.659 47.6487 48.6377C47.7023 48.6057 47.7649 48.5844 47.8186 48.5524C47.8722 48.5205 47.9258 48.4885 47.9884 48.4565C48.0421 48.4246 48.0957 48.382 48.1494 48.35C48.203 48.3074 48.2566 48.2754 48.3103 48.2328C48.3639 48.1901 48.4086 48.1475 48.4623 48.1049C48.5159 48.0623 48.5606 48.0196 48.6053 47.9664C48.65 47.9237 48.7037 47.8705 48.7484 47.8172C48.7931 47.7639 48.8378 47.7213 48.8825 47.668C48.9272 47.6147 48.9719 47.5614 49.0076 47.5082C49.0523 47.4549 49.0881 47.4016 49.1328 47.3377L49.249 47.1672C49.2848 47.1032 49.3205 47.0499 49.3563 46.986C49.3921 46.9221 49.4278 46.8581 49.4546 46.7942C49.5179 46.667 49.5746 46.5353 49.6245 46.3999C49.6513 46.336 49.6782 46.2614 49.696 46.1975C49.7229 46.1335 49.7407 46.0589 49.7586 45.995C49.7765 45.9204 49.8033 45.8565 49.8212 45.7819L49.8748 45.5688C49.8927 45.4942 49.9017 45.4302 49.9195 45.3556C49.9285 45.2811 49.9464 45.2065 49.9553 45.1425L49.9821 44.9187C49.9821 44.8442 49.9911 44.7696 50 44.695V21.5288V21.305H49.9732ZM19.0129 20.5911C19.2275 20.3353 19.4867 20.2075 19.7907 20.2075H46.1914C46.4954 20.2075 46.7547 20.3353 46.9692 20.5911C47.1838 20.8468 47.2911 21.1558 47.2911 21.5181V27.2831H18.691V21.5181C18.691 21.1558 18.7983 20.8468 19.0129 20.5911ZM46.9782 45.3983C46.7636 45.654 46.5043 45.7819 46.2004 45.7819H19.7996C19.4957 45.7819 19.2364 45.654 19.0218 45.3983C18.8073 45.1425 18.7 44.8335 18.7 44.4712V30.6717H47.309V44.4712C47.309 44.8335 47.2017 45.1425 46.9871 45.3983H46.9782Z" fill="#D7866F"/>
</g>
</g>
</g>
</svg>
