<svg width="66" height="66" viewBox="0 0 66 66" fill="none" xmlns="http://www.w3.org/2000/svg">
<g id="Group 37414">
<g id="Group 37380">
<rect id="Rectangle 3204" width="66" height="66" rx="18" fill="white"/>
</g>
<g id="Group 37410">
<path id="Vector" d="M23.5872 26.3967L27.8307 22.2305C27.9502 22.1134 28.092 22.0205 28.2481 21.9571C28.4041 21.8938 28.5713 21.8612 28.7402 21.8613C28.9091 21.8614 29.0762 21.8942 29.2322 21.9577C29.3882 22.0213 29.5299 22.1143 29.6492 22.2316C29.7685 22.3489 29.8632 22.4882 29.9277 22.6414C29.9922 22.7946 30.0254 22.9587 30.0253 23.1245C30.0252 23.2903 29.9918 23.4545 29.9271 23.6076C29.8624 23.7607 29.7676 23.8998 29.6481 24.017L27.6013 26.0285H37.5627C37.7316 26.0285 37.8988 26.0611 38.0549 26.1245C38.2109 26.1879 38.3527 26.2809 38.4721 26.3981C38.5915 26.5153 38.6863 26.6545 38.7509 26.8077C38.8155 26.9609 38.8487 27.1251 38.8487 27.2909C38.8487 27.4567 38.8155 27.6209 38.7509 27.7741C38.6863 27.9273 38.5915 28.0665 38.4721 28.1837C38.3527 28.301 38.2109 28.394 38.0549 28.4574C37.8988 28.5208 37.7316 28.5535 37.5627 28.5534H27.6013L29.6481 30.5628C29.8844 30.8004 30.0158 31.1199 30.0139 31.452C30.012 31.7841 29.8769 32.102 29.6379 32.337C29.3988 32.572 29.0751 32.705 28.7368 32.7073C28.3986 32.7096 28.073 32.581 27.8307 32.3492L23.5872 28.1833C23.4676 28.066 23.3727 27.9268 23.308 27.7735C23.2433 27.6203 23.21 27.456 23.21 27.2901C23.21 27.1241 23.2433 26.9598 23.308 26.8066C23.3727 26.6533 23.4676 26.5141 23.5872 26.3968V26.3967Z" fill="#7C79D6"/>
<path id="Vector_2" d="M41.6026 16H21.7633C20.5092 16.0203 19.313 16.4912 18.4283 17.3129C17.5435 18.1345 17.0398 19.2423 17.0239 20.4014V20.583L17.001 44.9126C16.9758 46.0699 17.4336 47.1918 18.2795 48.0455C19.1254 48.8993 20.2944 49.4193 21.544 49.4978H32.4617C32.8498 49.4978 33.222 49.3554 33.4964 49.1018C33.7708 48.8481 33.925 48.5042 33.925 48.1455C33.925 47.7869 33.7708 47.4429 33.4964 47.1893C33.222 46.9357 32.8498 46.7932 32.4617 46.7932H21.6492C21.1635 46.7679 20.7063 46.5728 20.3705 46.2475C20.0346 45.9222 19.8452 45.491 19.8407 45.0414V20.5832C19.8204 20.1314 19.9832 19.6888 20.2975 19.3421C20.6117 18.9955 21.0546 18.7697 21.5395 18.709H41.3809C41.8628 18.7393 42.3146 18.9365 42.646 19.2612C42.9775 19.5859 43.1642 20.0142 43.1689 20.4606V28.779C43.1949 29.1126 43.3527 29.4259 43.6122 29.6591C43.8717 29.8924 44.2149 30.0295 44.5765 30.0444C44.9382 30.0592 45.2931 29.9508 45.574 29.7397C45.8549 29.5287 46.0421 29.2296 46.1001 28.8994V20.5832C46.1315 19.4315 45.6818 18.3128 44.8444 17.4593C44.0069 16.6059 42.846 16.0833 41.6026 16Z" fill="#7C79D6"/>
<path id="Vector_3" d="M24.5559 35.4653H29.3761C30.2734 35.4653 30.7219 35.9058 30.7219 36.7867C30.7219 37.6676 30.2732 38.1081 29.3759 38.1081H24.5562C23.6589 38.1081 23.2102 37.6676 23.2102 36.7867C23.2102 35.9058 23.6589 35.4653 24.5562 35.4653H24.5559ZM24.5559 40.9235H29.3761C30.2734 40.9235 30.7219 41.3638 30.7219 42.2448C30.7219 43.1258 30.2732 43.5663 29.3759 43.5663H24.5562C23.6589 43.5663 23.2102 43.1258 23.2102 42.2448C23.2102 41.3638 23.6589 40.9235 24.5562 40.9235H24.5559Z" fill="#7C79D6"/>
<g id="Group 37407">
<path id="Vector_4" d="M41.8227 36.688C41.1736 36.688 40.536 37.2606 40.536 38.0841C40.536 38.6844 40.6674 38.9199 40.7499 39.0232C40.8435 39.1401 41.0172 39.2669 41.4322 39.4123L46.524 41.1562L46.5309 41.1586C47.1196 41.3644 47.7804 41.6833 48.2721 42.3017C48.7745 42.9333 48.9831 43.7255 48.9831 44.6489C48.9831 46.639 47.4153 48.3384 45.3604 48.3384H42.1781C39.9272 48.3384 38.1831 46.4801 38.1831 44.2831C38.1831 43.979 38.3062 43.6873 38.5252 43.4722C38.7443 43.2572 39.0413 43.1363 39.3511 43.1363C39.6609 43.1363 39.958 43.2572 40.177 43.4722C40.3961 43.6873 40.5191 43.979 40.5191 44.2831C40.5191 45.3106 41.3142 46.0449 42.1781 46.0449H45.3604C46.0141 46.0449 46.6471 45.4839 46.6471 44.6489C46.6471 44.0597 46.5171 43.8214 46.4311 43.7133C46.3351 43.5926 46.1583 43.4632 45.7509 43.3204L40.6591 41.5766L40.6522 41.5742C40.0708 41.3709 39.4074 41.0578 38.9128 40.4398C38.4072 39.8078 38.2 39.0128 38.2 38.0841C38.2 36.1155 39.7631 34.3945 41.8227 34.3945H45.0049C47.2559 34.3945 49 36.2529 49 38.4496C49 38.7538 48.8769 39.0454 48.6579 39.2605C48.4388 39.4756 48.1417 39.5964 47.832 39.5964C47.5222 39.5964 47.2251 39.4756 47.006 39.2605C46.787 39.0454 46.6639 38.7538 46.6639 38.4496C46.6639 37.4223 45.8689 36.688 45.0049 36.688H41.8227Z" fill="#7C79D6"/>
<path id="Vector_5" d="M43.5832 32.749C43.893 32.749 44.19 32.8698 44.4091 33.0849C44.6281 33.3 44.7512 33.5916 44.7512 33.8958V48.8534C44.7512 49.0039 44.721 49.1531 44.6623 49.2922C44.6036 49.4313 44.5176 49.5577 44.4091 49.6642C44.3006 49.7707 44.1719 49.8552 44.0302 49.9128C43.8884 49.9704 43.7366 50.0001 43.5832 50.0001C43.4298 50.0001 43.2779 49.9704 43.1362 49.9128C42.9945 49.8552 42.8657 49.7707 42.7573 49.6642C42.6488 49.5577 42.5628 49.4313 42.5041 49.2922C42.4454 49.1531 42.4152 49.0039 42.4152 48.8534V33.8958C42.4152 33.5916 42.5382 33.3 42.7573 33.0849C42.9763 32.8698 43.2734 32.749 43.5832 32.749Z" fill="#7C79D6"/>
</g>
</g>
</g>
</svg>
