<svg width="66" height="66" viewBox="0 0 66 66" fill="none" xmlns="http://www.w3.org/2000/svg">
<g id="Group 37370">
<g id="Group 37377">
<rect id="Rectangle 3201" width="66" height="66" rx="18" fill="#F0D6A4"/>
<g id="Group 37369">
<path id="Vector" d="M35.1077 41.4194L41.2635 31.9046L42.6196 33.7302L42.7778 26.7778L35.7196 29.819L38.903 30.3936L34.8234 36.6986L29.1531 29.8583L17.3755 42.2486C16.8458 42.8058 16.8807 43.6751 17.4535 44.1904C17.7253 44.4349 18.0689 44.5556 18.4121 44.5556C18.7921 44.5556 19.171 44.4073 19.4494 44.1146L29.0073 34.0599L35.1077 41.4194Z" fill="#232323"/>
<path id="Vector_2" d="M33.0004 17C24.1639 17 17 24.1635 17 33.0002C17 35.5367 17.5926 37.934 18.6432 40.0646L20.8293 37.8203C20.2379 36.3278 19.909 34.7028 19.909 32.9998C19.909 25.77 25.7701 19.909 33 19.909C40.2299 19.909 46.091 25.77 46.091 32.9998C46.091 40.2296 40.2299 46.0907 33 46.0907C29.1595 46.0907 25.7058 44.4371 23.3107 41.803L21.2827 43.8907C24.204 47.0326 28.3715 49 32.9996 49C41.8361 49 49 41.8365 49 32.9998C49 24.1631 41.8368 17 33.0004 17Z" fill="#232323"/>
</g>
</g>
</g>
</svg>
