<svg width="66" height="66" viewBox="0 0 66 66" fill="none" xmlns="http://www.w3.org/2000/svg">
<g id="Group 37378">
<rect id="Rectangle 3202" width="66" height="66" rx="18" fill="#E0AB9C"/>
<g id="Group 37371">
<path id="Vector" d="M33 17C24.1632 17 17 24.1632 17 33C17 35.7824 17.7304 38.3856 18.9808 40.6632C19.152 41.276 19.6904 41.7344 20.3576 41.7344C21.1608 41.7344 21.812 41.0832 21.812 40.28L21.7984 40.1448C21.7984 39.8616 21.696 39.6128 21.556 39.3888C20.488 37.4912 19.8648 35.3104 19.8648 32.9776C19.8648 25.7352 25.736 19.8648 32.9776 19.8648C40.2192 19.8648 46.0904 25.736 46.0904 32.9776C46.0904 40.2192 40.2192 46.0904 32.9776 46.0904C30.088 46.0904 27.4264 45.1432 25.2592 43.5592C24.9944 43.2784 24.624 43.0984 24.2072 43.0984C23.404 43.0984 22.7528 43.7496 22.7528 44.5528L22.7664 44.688C22.7664 45.3416 23.2048 45.8736 23.7976 46.0568C26.4024 47.8992 29.5672 49 33 49C41.8368 49 49 41.8368 49 33C49 24.1632 41.8368 17 33 17ZM28.5656 36.4424L25.6152 37.2712C26.2696 40.7584 28.3304 42.6696 31.792 43.0144V45.008H33.728V43.0264C37.4736 42.756 39.4856 40.9736 39.72 37.64C39.836 34.7392 37.8368 32.7984 33.728 31.8168V26.6112C35.0984 26.9344 35.964 27.992 36.3096 29.8112L39.26 28.9824C38.6576 25.8696 36.8096 24.1488 33.7288 23.8048V22.0744H31.7928V23.7976C28.292 24.116 26.4336 25.8616 26.2616 29.0744C26.0296 31.6216 27.8752 33.376 31.7928 34.34V40.2992C29.8536 39.96 28.7688 38.6848 28.5656 36.4424ZM33.728 34.8192C35.952 35.4816 36.9416 36.3896 36.6784 37.548C36.6784 39.2696 35.688 40.2048 33.728 40.3688V34.8192ZM29.2104 29.0744C29.2624 27.6392 30.1264 26.8048 31.792 26.5664V31.3216C29.9784 30.7424 29.108 29.9944 29.2104 29.0744Z" fill="#232323"/>
</g>
</g>
</svg>
