<svg width="66" height="66" viewBox="0 0 66 66" fill="none" xmlns="http://www.w3.org/2000/svg">
<g id="Group 37379">
<rect id="Rectangle 3203" width="66" height="66" rx="18" fill="#C0BFDF"/>
<g id="Group 37368">
<path id="Vector" d="M32.7425 17.0841L46.5801 25.3674C46.6709 25.4218 46.7463 25.4996 46.7986 25.5932C46.851 25.6868 46.8785 25.7928 46.8785 25.9007V32.3347C46.8785 32.4984 46.8151 32.6554 46.7023 32.7712C46.5894 32.8869 46.4364 32.9519 46.2769 32.9519H45.0736C44.914 32.9519 44.761 32.8869 44.6482 32.7712C44.5353 32.6554 44.472 32.4984 44.472 32.3347V27.0191L32.4392 19.7061L20.4065 27.0191V46.5311H34.2442C34.3794 46.5312 34.5106 46.578 34.6167 46.664C34.7228 46.75 34.7976 46.8702 34.8289 47.0051L34.8458 47.1483V48.3828C34.8458 48.5465 34.7824 48.7035 34.6696 48.8192C34.5567 48.935 34.4037 49 34.2442 49H18.6016C18.4421 49 18.289 48.935 18.1762 48.8192C18.0634 48.7035 18 48.5465 18 48.3828V25.9007C18 25.7928 18.0275 25.6868 18.0799 25.5932C18.1322 25.4996 18.2076 25.4218 18.2984 25.3674L32.136 17.0841C32.2281 17.029 32.3327 17 32.4392 17C32.5458 17 32.6504 17.029 32.7425 17.0841ZM40.4121 36.0381V47.6495C40.4027 47.9704 40.2718 48.275 40.0472 48.4986C39.8225 48.7221 39.5218 48.8471 39.2088 48.8469H39.1703C38.8579 48.8367 38.5617 48.7021 38.3443 48.4717C38.1269 48.2413 38.0054 47.9331 38.0056 47.6125V38.8502L36.2632 40.4945L36.232 40.5242C35.9936 40.7419 35.6806 40.8535 35.362 40.8345C35.0434 40.8156 34.7452 40.6675 34.5329 40.4229C34.3207 40.1784 34.2119 39.8573 34.2304 39.5304C34.2489 39.2035 34.3932 38.8976 34.6316 38.6799L38.393 35.1295L38.4195 35.1049C38.5938 34.9494 38.808 34.8487 39.0366 34.8148C39.2652 34.7809 39.4985 34.8152 39.7086 34.9136C39.9186 35.012 40.0967 35.1704 40.2215 35.3698C40.3462 35.5692 40.4124 35.8012 40.4121 36.0381ZM44.058 34.8036C44.3704 34.8133 44.6669 34.9472 44.8848 35.1772C45.1026 35.4071 45.2247 35.715 45.2252 36.0356V44.7954L46.9651 43.1511L46.9964 43.1239C47.2348 42.9062 47.5477 42.7946 47.8664 42.8136C48.185 42.8325 48.4832 42.9806 48.6954 43.2252C48.9076 43.4697 49.0165 43.7908 48.998 44.1177C48.9795 44.4446 48.8351 44.7505 48.5968 44.9682L44.8353 48.5161L44.8089 48.5408C44.6347 48.6961 44.4207 48.7967 44.1923 48.8307C43.964 48.8647 43.7309 48.8306 43.5209 48.7325C43.3109 48.6344 43.1328 48.4765 43.0079 48.2774C42.8829 48.0784 42.8164 47.8467 42.8163 47.61V35.9961C42.8263 35.6756 42.9574 35.3717 43.182 35.1487C43.4066 34.9256 43.707 34.801 44.0195 34.8012L44.058 34.8036Z" fill="#232323"/>
<path id="Vector 1" d="M23.9432 31.9501L26.4649 28.9318C26.6678 28.689 27.0423 28.6932 27.2395 28.9406L30.4909 33.0175C30.877 33.5016 31.6058 33.522 32.0184 33.0603L36.5725 27.9634M22.9717 39.9235H30.7436" stroke="#232323" stroke-width="2.3" stroke-linecap="round"/>
</g>
</g>
</svg>
