<svg width="66" height="66" viewBox="0 0 66 66" fill="none" xmlns="http://www.w3.org/2000/svg">
<g id="Group 37380">
<rect id="Rectangle 3204" width="66" height="66" rx="18" fill="#B4C4E1"/>
<g id="Group 37372">
<path id="Vector" d="M18 21.319C18 20.1735 18.4698 19.075 19.3061 18.265C20.1425 17.455 21.2767 17 22.4595 17H38.6757C39.2613 17 39.8412 17.1117 40.3822 17.3288C40.9233 17.5458 41.4149 17.864 41.829 18.265C42.2431 18.6661 42.5716 19.1422 42.7957 19.6662C43.0198 20.1902 43.1351 20.7518 43.1351 21.319V24.6564H43.5405C44.7233 24.6564 45.8575 25.1115 46.6939 25.9215C47.5302 26.7314 48 27.83 48 28.9755V43.1104C48 44.6724 47.3593 46.1705 46.2189 47.275C45.0785 48.3795 43.5317 49 41.9189 49H28.9459C28.3603 49 27.7804 48.8883 27.2394 48.6712C26.6983 48.4542 26.2067 48.136 25.7926 47.735C25.3785 47.3339 25.0501 46.8578 24.8259 46.3338C24.6018 45.8098 24.4865 45.2482 24.4865 44.681V44.092H22.4595C21.8738 44.092 21.2939 43.9803 20.7529 43.7633C20.2119 43.5462 19.7202 43.2281 19.3061 42.827C18.892 42.426 18.5636 41.9498 18.3395 41.4258C18.1153 40.9018 18 40.3402 18 39.773V34.0845C18 33.1473 18.3844 32.2484 19.0687 31.5857C19.7529 30.923 20.681 30.5507 21.6486 30.5507H31.3784C31.7009 30.5507 32.0103 30.6748 32.2384 30.8957C32.4665 31.1166 32.5946 31.4162 32.5946 31.7286C32.5946 32.041 32.4665 32.3406 32.2384 32.5615C32.0103 32.7824 31.7009 32.9066 31.3784 32.9066H21.6486C21.3261 32.9066 21.0167 33.0307 20.7887 33.2516C20.5606 33.4725 20.4324 33.7721 20.4324 34.0845V39.773C20.4324 40.8567 21.3405 41.7362 22.4595 41.7362H38.6757C39.7946 41.7362 40.7027 40.8567 40.7027 39.773V21.319C40.7027 20.2353 39.7946 19.3558 38.6757 19.3558H22.4595C21.3405 19.3558 20.4324 20.2353 20.4324 21.319V24.3612C20.4324 24.6736 20.3043 24.9732 20.0762 25.1941C19.8481 25.415 19.5388 25.5391 19.2162 25.5391C18.8937 25.5391 18.5843 25.415 18.3562 25.1941C18.1281 24.9732 18 24.6736 18 24.3612V21.319ZM43.1351 39.773C43.1351 40.3402 43.0198 40.9018 42.7957 41.4258C42.5716 41.9498 42.2431 42.426 41.829 42.827C41.4149 43.2281 40.9233 43.5462 40.3822 43.7633C39.8412 43.9803 39.2613 44.092 38.6757 44.092H26.9189V44.681C26.9189 45.7647 27.827 46.6442 28.9459 46.6442H41.9189C42.8866 46.6442 43.8146 46.2719 44.4989 45.6092C45.1832 44.9465 45.5676 44.0476 45.5676 43.1104V28.9755C45.5676 27.8918 44.6595 27.0123 43.5405 27.0123H43.1351V39.773Z" fill="#232323"/>
<path id="Vector_2" d="M24.0812 24.6565C23.7586 24.6565 23.4493 24.7806 23.2212 25.0015C22.9931 25.2224 22.865 25.522 22.865 25.8344C22.865 26.1468 22.9931 26.4464 23.2212 26.6673C23.4493 26.8882 23.7586 27.0123 24.0812 27.0123H35.4326C35.7551 27.0123 36.0645 26.8882 36.2926 26.6673C36.5206 26.4464 36.6488 26.1468 36.6488 25.8344C36.6488 25.522 36.5206 25.2224 36.2926 25.0015C36.0645 24.7806 35.7551 24.6565 35.4326 24.6565H24.0812Z" fill="#232323"/>
</g>
</g>
</svg>
