<svg width="24" height="24" viewBox="0 0 24 24" fill="none" xmlns="http://www.w3.org/2000/svg">
<g id="Frame">
<path id="Vector" d="M22.8021 4.76625C22.5546 4.32604 22.0852 4 21.4505 4H2.54945C1.91481 4 1.44537 4.32625 1.19787 4.76646C1.06783 4.99035 0.999673 5.24304 1 5.5V18.5C1 18.8978 1.16298 19.2794 1.45307 19.5607C1.74317 19.842 2.13662 20 2.54688 20H21.4531C21.8634 20 22.2568 19.842 22.5469 19.5607C22.837 19.2794 23 18.8978 23 18.5V5.5C23.0004 5.24297 22.9322 4.99021 22.8021 4.76625ZM21.4501 5.5L21.4039 5.52521L21.3595 5.55375L12 11.5377L2.64055 5.55375L2.59608 5.52521L2.54988 5.5H21.4501ZM21.4531 18.5H2.54688V7.29042L11.1486 12.7904C11.4013 12.952 11.6973 13.0381 12 13.0381C12.3027 13.0381 12.5987 12.952 12.8514 12.7904L21.4531 7.29042V18.5Z" fill="#111111"/>
</g>
</svg>
