<svg width="201" height="106" viewBox="0 0 201 106" fill="none" xmlns="http://www.w3.org/2000/svg">
<g id="Group 38299">
<g id="Group 38297">
<path id="Path" d="M180.403 24.5142H139.207V99.8715H180.403V24.5142Z" fill="#E6E6E6"/>
<path id="Path_2" d="M143.055 96.0129H176.554V28.3726H143.055V96.0129Z" fill="white"/>
<path id="Path_3" d="M165.71 42.8799H155.926V43.791H165.71V42.8799Z" fill="#E6E6E6"/>
<path id="Path_4" d="M172.979 46.0317H155.926V46.9429H172.979V46.0317Z" fill="#E6E6E6"/>
<path id="Path_5" d="M172.962 49.1836H155.926V50.0946H172.962V49.1836Z" fill="#E6E6E6"/>
<path id="Path_6" d="M153.899 42.8936H146.631V50.1822H153.899V42.8936Z" fill="#E6E6E6"/>
<path id="Path_7" d="M165.71 58.541H155.926V59.4525H165.71V58.541Z" fill="#E6E6E6"/>
<path id="Path_8" d="M172.979 61.6929H155.926V62.6043H172.979V61.6929Z" fill="#E6E6E6"/>
<path id="Path_9" d="M172.962 64.8447H155.926V65.7555H172.962V64.8447Z" fill="#E6E6E6"/>
<path id="Path_10" d="M153.899 58.5547H146.631V65.8436H153.899V58.5547Z" fill="#E6E6E6"/>
<path id="Path_11" d="M165.71 74.2031H155.926V75.1139H165.71V74.2031Z" fill="#E6E6E6"/>
<path id="Path_12" d="M172.979 77.3545H155.926V78.266H172.979V77.3545Z" fill="#E6E6E6"/>
<path id="Path_13" d="M172.962 80.5063H155.926V81.4178H172.962V80.5063Z" fill="#E6E6E6"/>
<path id="Path_14" d="M153.899 74.2168H146.631V81.5057H153.899V74.2168Z" fill="#E6E6E6"/>
<path id="Path_15" d="M65.4166 24.5142H24.2209V99.8715H65.4166V24.5142Z" fill="#E6E6E6"/>
<path id="Path_16" d="M28.0688 96.0129H61.5686V28.3726H28.0688V96.0129Z" fill="white"/>
<path id="Path_17" d="M50.7243 42.8799H40.9407V43.791H50.7243V42.8799Z" fill="#E6E6E6"/>
<path id="Path_18" d="M57.9926 46.0317H40.9407V46.9429H57.9926V46.0317Z" fill="#E6E6E6"/>
<path id="Path_19" d="M57.9759 49.1836H40.9407V50.0946H57.9759V49.1836Z" fill="#E6E6E6"/>
<path id="Path_20" d="M38.9131 42.8936H31.6448V50.1822H38.9131V42.8936Z" fill="#E6E6E6"/>
<path id="Path_21" d="M50.7243 58.541H40.9407V59.4525H50.7243V58.541Z" fill="#E6E6E6"/>
<path id="Path_22" d="M57.9926 61.6929H40.9407V62.6043H57.9926V61.6929Z" fill="#E6E6E6"/>
<path id="Path_23" d="M57.9759 64.8447H40.9407V65.7555H57.9759V64.8447Z" fill="#E6E6E6"/>
<path id="Path_24" d="M38.9131 58.5547H31.6448V65.8436H38.9131V58.5547Z" fill="#E6E6E6"/>
<path id="Path_25" d="M50.7243 74.2031H40.9407V75.1139H50.7243V74.2031Z" fill="#E6E6E6"/>
<path id="Path_26" d="M57.9926 77.3545H40.9407V78.266H57.9926V77.3545Z" fill="#E6E6E6"/>
<path id="Path_27" d="M57.9759 80.5063H40.9407V81.4178H57.9759V80.5063Z" fill="#E6E6E6"/>
<path id="Path_28" d="M38.9131 74.2168H31.6448V81.5057H38.9131V74.2168Z" fill="#E6E6E6"/>
<path id="Path_29" d="M100.5 106C156.005 106 201 104.17 201 101.914C201 99.6572 156.005 97.8281 100.5 97.8281C44.9954 97.8281 0 99.6572 0 101.914C0 104.17 44.9954 106 100.5 106Z" fill="#E6E6E6"/>
<path id="Path_30" d="M130.354 8.00001C130.354 3.58173 126.773 0 122.354 0H82.2686C77.8503 0 74.2686 3.58172 74.2686 8V94.5953C74.2686 99.0136 77.8503 102.595 82.2686 102.595H122.354C126.773 102.595 130.354 99.0136 130.354 94.5953V8.00001Z" fill="#3F3D56"/>
<path id="Path_31" d="M77 93.9846C77 97.2983 79.6863 99.9846 83 99.9846H122.238C125.552 99.9846 128.238 97.2983 128.238 93.9846V8.61035C128.238 5.29664 125.552 2.61035 122.238 2.61035H83C79.6863 2.61035 77 5.29664 77 8.61035V93.9846Z" fill="white"/>
<path id="Path_32" d="M120.225 54.9087H97.032V56.1491H120.225V54.9087Z" fill="#E6E6E6"/>
<g id="Group 38298">
<path id="Path_33" fill-rule="evenodd" clip-rule="evenodd" d="M110.352 38.0815H97.032V39.3219H110.352V38.0815Z" fill="#3561E5"/>
<path id="Path_34" d="M120.247 42.3721H97.032V43.6124H120.247V42.3721Z" fill="#E6E6E6"/>
<path id="Path_35" d="M120.225 46.6631H97.032V47.9035H120.225V46.6631Z" fill="#E6E6E6"/>
<path id="Path_36" fill-rule="evenodd" clip-rule="evenodd" d="M94.2718 38.0996H84.3757V48.0226H94.2718V38.0996Z" fill="#3561E5"/>
<path id="Path_37" fill-rule="evenodd" clip-rule="evenodd" d="M110.352 59.4038H97.032V60.6442H110.352V59.4038Z" fill="#3561E5"/>
<path id="Path_38" d="M120.247 63.6943H97.032V64.9347H120.247V63.6943Z" fill="#E6E6E6"/>
<path id="Path_39" fill-rule="evenodd" clip-rule="evenodd" d="M94.2718 59.4224H84.3757V69.3454H94.2718V59.4224Z" fill="#3561E5"/>
<path id="Path_40" fill-rule="evenodd" clip-rule="evenodd" d="M110.352 80.7261H97.032V81.9669H110.352V80.7261Z" fill="#3561E5"/>
<path id="Path_41" d="M120.247 85.0166H97.032V86.2574H120.247V85.0166Z" fill="#E6E6E6"/>
<path id="Path_42" d="M120.225 89.3081H97.032V90.5482H120.225V89.3081Z" fill="#E6E6E6"/>
<path id="Path_43" fill-rule="evenodd" clip-rule="evenodd" d="M94.2718 80.7441H84.3757V90.6677H94.2718V80.7441Z" fill="#3561E5"/>
</g>
<path id="Vector" d="M108.167 18.9352H110.056C110.306 18.9352 110.546 19.031 110.723 19.2017C110.9 19.3724 111 19.6039 111 19.8453V30.7665C111 31.0078 110.9 31.2393 110.723 31.41C110.546 31.5807 110.306 31.6766 110.056 31.6766H94.9444C94.694 31.6766 94.4537 31.5807 94.2766 31.41C94.0995 31.2393 94 31.0078 94 30.7665V19.8453C94 19.6039 94.0995 19.3724 94.2766 19.2017C94.4537 19.031 94.694 18.9352 94.9444 18.9352H96.8333V18.0251C96.8333 16.5768 97.4304 15.1879 98.4931 14.1638C99.5558 13.1398 100.997 12.5645 102.5 12.5645C104.003 12.5645 105.444 13.1398 106.507 14.1638C107.57 15.1879 108.167 16.5768 108.167 18.0251V18.9352ZM101.556 25.9721V27.8541C101.556 27.9543 101.641 28.0362 101.744 28.0362H103.256C103.28 28.0362 103.305 28.0315 103.328 28.0223C103.351 28.0132 103.372 27.9998 103.389 27.9829C103.407 27.966 103.421 27.9459 103.43 27.9238C103.44 27.9017 103.444 27.8781 103.444 27.8541V25.9721C103.805 25.7717 104.086 25.4625 104.245 25.0923C104.404 24.7221 104.432 24.3117 104.325 23.9246C104.217 23.5376 103.98 23.1956 103.65 22.9517C103.32 22.7077 102.916 22.5755 102.5 22.5755C102.084 22.5755 101.68 22.7077 101.35 22.9517C101.02 23.1956 100.783 23.5376 100.675 23.9246C100.568 24.3117 100.596 24.7221 100.755 25.0923C100.914 25.4625 101.195 25.7717 101.556 25.9721ZM106.278 18.9352V18.0251C106.278 17.0596 105.88 16.1336 105.171 15.4509C104.463 14.7682 103.502 14.3847 102.5 14.3847C101.498 14.3847 100.537 14.7682 99.8287 15.4509C99.1202 16.1336 98.7222 17.0596 98.7222 18.0251V18.9352H106.278Z" fill="#111111"/>
</g>
</g>
</svg>
