<svg width="107" height="114" viewBox="0 0 107 114" fill="none" xmlns="http://www.w3.org/2000/svg">
<g id="23">
<g id="Background 18">
<path id="Vector" d="M96.2487 61.7516C79.24 86.8164 102.442 101.961 73.9096 109.473C53.4616 114.853 42.7897 115.361 26.0243 111.406C12.4218 108.203 -3.17138 89.1473 4.22707 69.5395C9.71231 55.0021 9.64597 52.119 9.43585 40.3101C9.08196 20.7244 61.4793 -17.3754 94.3687 8.99293C102.773 15.7424 110.294 41.0392 96.2487 61.7516Z" fill="url(#paint0_linear_88_6223)"/>
</g>
<g id="Paper 7">
<path id="Vector_2" d="M94.3355 16.5709V99.752C94.3355 102.16 92.3781 104.115 89.9672 104.115H26.6657C24.2548 104.115 22.2974 102.16 22.2974 99.752V27.9268L22.3637 27.8606L39.0296 12.2075H89.9672C92.3891 12.2075 94.3355 14.1628 94.3355 16.5709Z" fill="url(#paint1_linear_88_6223)"/>
<path id="Vector_3" opacity="0.4" d="M31.7969 66.59C31.7969 67.761 32.7479 68.711 33.9202 68.711H82.8671C84.0394 68.711 84.9905 67.761 84.9905 66.59C84.9905 65.4191 84.0394 64.4691 82.8671 64.4691H33.9202C32.7479 64.458 31.7969 65.408 31.7969 66.59Z" fill="white"/>
<path id="Vector_4" opacity="0.4" d="M31.7969 78.8849C31.7969 80.0558 32.7479 81.0058 33.9202 81.0058H82.8671C84.0394 81.0058 84.9905 80.0558 84.9905 78.8849C84.9905 77.7139 84.0394 76.7639 82.8671 76.7639H33.9202C32.7479 76.7639 31.7969 77.7139 31.7969 78.8849Z" fill="white"/>
<path id="Vector_5" opacity="0.4" d="M44.2607 91.1909C44.2607 92.3618 45.2118 93.3119 46.3841 93.3119H70.4041C71.5764 93.3119 72.5275 92.3618 72.5275 91.1909C72.5275 90.0199 71.5764 89.0699 70.4041 89.0699H46.3841C45.2118 89.0589 44.2607 90.0199 44.2607 91.1909Z" fill="white"/>
<path id="Vector_6" d="M39.0961 12.2076V23.4199C39.0961 25.9385 37.0502 27.9822 34.5287 27.9822H22.3086V27.9159L22.375 27.8496L39.0408 12.1965H39.0961V12.2076Z" fill="#5A2A68"/>
<g id="Group" opacity="0.4">
<path id="Vector_7" opacity="0.4" d="M56.5691 57.0014V53.0688C54.0144 52.9914 51.4598 52.2623 50 51.2902L51.0949 47.4792C52.6763 48.4071 54.9544 49.2577 57.4206 49.2577C59.9752 49.2577 61.7225 47.9984 61.7225 46.0541C61.7225 44.2315 60.307 43.0495 57.2989 41.9558C53.0412 40.4204 50.2765 38.4651 50.2765 34.6982C50.2765 31.2075 52.7095 28.5342 56.8123 27.8052V23.8284H60.1411V27.5952C62.6957 27.6726 64.443 28.2801 65.7369 28.9319L64.6421 32.6657C63.6689 32.2238 61.8773 31.2848 59.1236 31.2848C56.2815 31.2848 55.2641 32.743 55.2641 34.1238C55.2641 35.7808 56.7238 36.7197 60.1742 38.1006C64.7195 39.8018 66.7433 41.989 66.7433 45.6012C66.7433 49.0478 64.3546 52.0856 59.8868 52.8147V56.9903H56.5691V57.0014Z" fill="white"/>
</g>
</g>
<g id="Calulator">
<path id="Vector_8" d="M5.01233 35.9688H42.4691C44.8799 35.9688 46.8374 37.924 46.8374 40.3322V89.092C46.8374 91.5001 44.8799 93.4554 42.4691 93.4554H5.01233C2.60148 93.4554 0.644043 91.5001 0.644043 89.092V40.3322C0.644043 37.913 2.60148 35.9688 5.01233 35.9688Z" fill="url(#paint2_linear_88_6223)"/>
<path id="Vector_9" opacity="0.4" d="M39.9034 42.7627H7.32373V52.1192H39.9034V42.7627Z" fill="#5A2A68"/>
<path id="Vector_10" opacity="0.4" d="M20.1189 57.0349H7.25732V69.7496H20.1189V57.0349Z" fill="white"/>
<path id="Vector_11" opacity="0.4" d="M39.97 57.0349H27.1084V69.7496H39.97V57.0349Z" fill="white"/>
<path id="Vector_12" opacity="0.4" d="M20.1189 74.9966H7.25732V87.7113H20.1189V74.9966Z" fill="white"/>
<path id="Vector_13" opacity="0.4" d="M39.97 74.9966H27.1084V87.7113H39.97V74.9966Z" fill="white"/>
<g id="Group_2" opacity="0.4">
<g id="Group_3" opacity="0.4">
<path id="Vector_14" opacity="0.4" d="M14.1467 59.3435V62.9337H17.5971V63.8505H14.1467V67.4628H13.1735V63.8505H9.72314V62.9337H13.1735V59.3435H14.1467Z" fill="#5A2A68"/>
</g>
</g>
<g id="Group_4" opacity="0.4">
<g id="Group_5" opacity="0.4">
<path id="Vector_15" opacity="0.4" d="M35.4462 63.3423V64.3365H31.6641V63.3423H35.4462Z" fill="#5A2A68"/>
</g>
</g>
<g id="Group_6" opacity="0.41">
<path id="Vector_16" opacity="0.41" d="M26.0913 46.0655H26.0691L25.0407 46.5515L24.8306 45.6015L26.2682 44.9387H27.3188V50.3406H26.0913V46.0655Z" fill="white"/>
<path id="Vector_17" opacity="0.41" d="M29.0991 50.3405V49.5783L29.7959 48.9487C30.9792 47.8882 31.5542 47.2806 31.5653 46.6509C31.5653 46.2091 31.2999 45.8556 30.6695 45.8556C30.205 45.8556 29.7959 46.0876 29.5083 46.3085L29.1544 45.4027C29.5636 45.0934 30.194 44.8503 30.9239 44.8503C32.1514 44.8503 32.826 45.5684 32.826 46.5515C32.826 47.4573 32.1735 48.1864 31.3883 48.8824L30.8907 49.3021V49.3242H32.9255V50.3626H29.0991V50.3405Z" fill="white"/>
<path id="Vector_18" opacity="0.41" d="M33.9429 49.1031C34.164 49.2246 34.6838 49.4345 35.2036 49.4345C35.8561 49.4345 36.1989 49.1142 36.1989 48.7054C36.1989 48.1752 35.6681 47.9322 35.1041 47.9322H34.5843V47.0264H35.0708C35.4911 47.0153 36.033 46.8607 36.033 46.4078C36.033 46.0874 35.7676 45.8444 35.2367 45.8444C34.7944 45.8444 34.3299 46.0321 34.1087 46.1647L33.8544 45.2479C34.1751 45.038 34.8276 44.8391 35.5243 44.8391C36.6855 44.8391 37.3269 45.4467 37.3269 46.1868C37.3269 46.7612 37.0062 47.2141 36.3316 47.4461V47.4572C36.9841 47.5787 37.5038 48.0647 37.5038 48.7717C37.5038 49.7328 36.6633 50.4287 35.292 50.4287C34.5953 50.4287 33.9981 50.2409 33.6885 50.0421L33.9429 49.1031Z" fill="white"/>
</g>
<g id="Group_7" opacity="0.4">
<path id="Vector_19" opacity="0.4" d="M13.0631 80.1111C13.0631 81.3042 12.3111 81.9338 11.4817 81.9338C10.608 81.9338 9.92236 81.2821 9.92236 80.2105C9.92236 79.1943 10.5527 78.421 11.5259 78.421C12.4991 78.421 13.0631 79.139 13.0631 80.1111ZM10.9066 80.1774C10.9066 80.7739 11.1057 81.2047 11.4928 81.2047C11.8688 81.2047 12.0568 80.8181 12.0568 80.1774C12.0568 79.5919 11.9019 79.1501 11.4817 79.1501C11.0946 79.1501 10.9066 79.6029 10.9066 80.1774ZM11.5481 84.3199L14.8325 78.4099H15.5514L12.2558 84.3199H11.5481ZM17.1771 82.4862C17.1771 83.6792 16.4251 84.3089 15.5956 84.3089C14.733 84.3089 14.0474 83.6571 14.0363 82.5856C14.0363 81.5693 14.6556 80.796 15.6399 80.796C16.6241 80.7849 17.1771 81.5141 17.1771 82.4862ZM15.0427 82.5524C15.0316 83.1489 15.2417 83.5798 15.6288 83.5798C16.0048 83.5798 16.1928 83.1931 16.1928 82.5524C16.1928 81.9669 16.038 81.5251 15.6288 81.5251C15.2196 81.514 15.0427 81.978 15.0427 82.5524Z" fill="#5A2A68"/>
</g>
<g id="Group_8" opacity="0.4">
<path id="Vector_20" opacity="0.4" d="M31.4214 80.9506V80.1995H35.6017V80.9506H31.4214ZM31.4214 82.6297V81.8786H35.6017V82.6297H31.4214Z" fill="#5A2A68"/>
</g>
</g>
<g id="Small Elements 18">
<path id="Vector_21" d="M106.644 68.9872H103.437V66.0046H102.109V68.9872H98.9023V70.3128H102.109V73.2954H103.437V70.3128H106.644V68.9872Z" fill="#EACCF2"/>
<g id="Group_9">
<g id="Group_10">
<path id="Vector_22" d="M8.8824 20.3819C7.23462 20.3819 5.89648 19.0453 5.89648 17.3993C5.89648 15.7534 7.23462 14.4167 8.8824 14.4167C10.5302 14.4167 11.8683 15.7534 11.8683 17.3993C11.8683 19.0453 10.5302 20.3819 8.8824 20.3819ZM8.8824 15.7423C7.96451 15.7423 7.22356 16.4825 7.22356 17.3993C7.22356 18.3162 7.96451 19.0563 8.8824 19.0563C9.8003 19.0563 10.5412 18.3162 10.5412 17.3993C10.5412 16.4825 9.8003 15.7423 8.8824 15.7423Z" fill="#F4C6DC"/>
</g>
</g>
</g>
</g>
<defs>
<linearGradient id="paint0_linear_88_6223" x1="30.4412" y1="115.829" x2="76.0316" y2="-0.694441" gradientUnits="userSpaceOnUse">
<stop stop-color="#F4EAFD"/>
<stop offset="1" stop-color="#FCEFF5"/>
</linearGradient>
<linearGradient id="paint1_linear_88_6223" x1="74.475" y1="106.98" x2="45.6459" y2="19.6554" gradientUnits="userSpaceOnUse">
<stop stop-color="#4F2066"/>
<stop offset="1" stop-color="#A06578"/>
</linearGradient>
<linearGradient id="paint2_linear_88_6223" x1="0.644043" y1="64.7084" x2="46.8366" y2="64.7084" gradientUnits="userSpaceOnUse">
<stop stop-color="#FB97A3"/>
<stop offset="1" stop-color="#F9749A"/>
</linearGradient>
</defs>
</svg>
