<svg width="142" height="118" viewBox="0 0 142 118" fill="none" xmlns="http://www.w3.org/2000/svg">
<g id="undraw_order_confirmed_aaw7 (1)">
<g id="Group_2">
<rect id="Rectangle_76" x="100.076" y="26.7139" width="1.72968" height="14.2749" rx="0.864838" fill="#3F3D56"/>
<rect id="Rectangle_80" x="43.1472" width="57.8622" height="117.764" rx="5.85746" fill="#3F3D56"/>
<path id="Path_176" d="M92.9558 3.06738H86.3184V3.86696C86.3184 4.87214 85.9195 5.83611 85.2096 6.54668C84.4996 7.25726 83.5368 7.65618 82.533 7.65564H61.4244C60.4206 7.65618 59.4578 7.25726 58.7478 6.54668C58.0379 5.83611 57.639 4.87214 57.639 3.86696V3.06738H51.4245C48.8865 3.06738 46.8291 5.12775 46.8291 7.66934V110.102C46.8291 112.644 48.8865 114.704 51.4245 114.704H92.9558C95.4938 114.704 97.5512 112.644 97.5512 110.102V7.67722C97.5533 6.45534 97.07 5.28279 96.208 4.41805C95.346 3.55331 94.1759 3.06738 92.9558 3.06738Z" fill="white"/>
<rect id="Rectangle_81" x="66.4968" y="3.51709" width="8.07995" height="1.64217" rx="0.821087" fill="#E6E8EC"/>
<ellipse id="Ellipse_5" cx="76.7303" cy="4.33783" rx="0.931231" ry="0.932555" fill="#E6E8EC"/>
<ellipse id="Ellipse_11" cx="72.4314" cy="60.3271" rx="10.9459" ry="10.9614" fill="white"/>
<path id="Path_222" fill-rule="evenodd" clip-rule="evenodd" d="M86.8284 58.7973C86.8282 66.8885 80.2781 73.4475 72.1984 73.4472C64.1187 73.447 57.5691 66.8876 57.5693 58.7964C57.5696 50.7052 64.1197 44.1462 72.1994 44.1465C76.0794 44.1466 79.8004 45.6902 82.5439 48.4378C85.2874 51.1854 86.8286 54.9118 86.8284 58.7973ZM70.5079 66.5519L81.36 55.6844C81.5374 55.5073 81.6371 55.2667 81.6371 55.0158C81.6371 54.765 81.5374 54.5244 81.36 54.3472L80.0248 53.0199C79.8482 52.8423 79.6083 52.7426 79.3581 52.7426C79.1079 52.7426 78.868 52.8423 78.6914 53.0199L69.8404 61.8836L65.7077 57.7353C65.3384 57.3675 64.7417 57.3675 64.3724 57.7353L63.0372 59.0803C62.6699 59.4501 62.6699 60.0476 63.0372 60.4174L69.173 66.5598C69.3499 66.7374 69.5901 66.8373 69.8406 66.8373C70.0911 66.8373 70.3314 66.7374 70.5083 66.5598L70.5079 66.5519Z" fill="#3561E5"/>
</g>
<ellipse id="Ellipse_9" cx="129.79" cy="116.272" rx="7.07902" ry="1.19882" fill="#1D1D1D"/>
<path id="Path_179" fill-rule="evenodd" clip-rule="evenodd" d="M132.718 114.311C133.041 114.047 133.276 113.691 133.392 113.291C133.48 112.887 133.308 112.408 132.92 112.252C132.487 112.086 132.023 112.388 131.674 112.691C131.324 112.994 130.92 113.342 130.461 113.276C130.942 112.841 131.159 112.184 131.034 111.547C131.013 111.417 130.958 111.295 130.873 111.194C130.634 110.937 130.197 111.046 129.91 111.251C128.995 111.894 128.74 113.141 128.734 114.26C128.641 113.856 128.72 113.435 128.717 113.026C128.713 112.617 128.602 112.144 128.252 111.928C128.036 111.811 127.793 111.754 127.548 111.762C127.136 111.746 126.678 111.788 126.396 112.09C126.044 112.463 126.139 113.091 126.442 113.5C126.745 113.909 127.208 114.172 127.634 114.456C127.975 114.659 128.265 114.937 128.484 115.269C128.51 115.315 128.531 115.364 128.547 115.415H131.119C131.699 115.121 132.236 114.75 132.717 114.312L132.718 114.311Z" fill="#1D1D1D"/>
<ellipse id="Ellipse_9-2" cx="33.5443" cy="117.209" rx="4.67173" ry="0.79123" fill="#EFEFEF"/>
<path id="Path_179-2" d="M35.4765 115.915C35.6894 115.741 35.8446 115.506 35.9215 115.241C35.9913 114.968 35.8617 114.683 35.6101 114.556C35.3242 114.447 35.0187 114.646 34.7876 114.846C34.5565 115.046 34.2903 115.275 33.9871 115.232C34.3045 114.945 34.4479 114.511 34.3647 114.091C34.3511 114.005 34.3146 113.925 34.259 113.858C34.1016 113.688 33.8128 113.76 33.6235 113.895C33.0194 114.321 32.8509 115.142 32.8474 115.881C32.7859 115.615 32.8381 115.337 32.8358 115.067C32.8334 114.797 32.7603 114.485 32.529 114.342C32.3863 114.266 32.226 114.228 32.0642 114.233C31.7924 114.222 31.4903 114.25 31.3043 114.449C31.072 114.696 31.1347 115.11 31.3345 115.38C31.5343 115.65 31.8399 115.823 32.1212 116.01C32.346 116.144 32.5379 116.328 32.6824 116.546C32.6998 116.577 32.7138 116.609 32.7242 116.643H34.4217C34.8044 116.448 35.1592 116.203 35.4765 115.914V115.915Z" fill="#EFEFEF"/>
<ellipse id="Ellipse_12" cx="7.12388" cy="117.209" rx="4.67173" ry="0.79123" fill="#EFEFEF"/>
<path id="Path_223" d="M9.05613 115.915C9.26903 115.741 9.42415 115.506 9.50106 115.241C9.57084 114.968 9.44131 114.683 9.1897 114.556C8.90384 114.447 8.59831 114.646 8.36719 114.846C8.13607 115.046 7.86987 115.275 7.5667 115.232C7.88414 114.945 8.0275 114.511 7.94429 114.091C7.93068 114.005 7.89414 113.925 7.83856 113.858C7.68123 113.688 7.39238 113.76 7.20311 113.895C6.59897 114.321 6.43047 115.142 6.42701 115.881C6.36549 115.615 6.41772 115.337 6.41536 115.067C6.413 114.797 6.33985 114.485 6.10857 114.342C5.96592 114.266 5.80564 114.228 5.64382 114.233C5.37196 114.222 5.06989 114.25 4.88392 114.449C4.65155 114.696 4.71432 115.11 4.91413 115.38C5.11394 115.65 5.41947 115.823 5.70078 116.01C5.92563 116.144 6.11744 116.328 6.26197 116.546C6.27938 116.577 6.29341 116.609 6.30382 116.643H8.00124C8.38398 116.448 8.73881 116.203 9.05613 115.914V115.915Z" fill="#EFEFEF"/>
<rect id="Rectangle_22" y="117.548" width="142" height="0.286904" fill="#2F2E41"/>
<path id="Path_177" fill-rule="evenodd" clip-rule="evenodd" d="M135.068 7.95976C135.068 7.95976 120.245 7.06407 121.991 17.466C121.991 17.466 121.639 19.3048 123.308 20.1388C123.308 20.1388 123.334 19.3683 124.829 19.631C125.361 19.7193 125.902 19.7453 126.44 19.7085C127.166 19.6607 127.857 19.3779 128.408 18.9028V18.9028C128.408 18.9028 132.575 17.1785 134.195 10.3591C134.195 10.3591 135.394 8.87121 135.346 8.48851L132.845 9.55861C132.845 9.55861 133.7 11.3657 133.021 12.8672C133.021 12.8672 132.94 9.62321 132.459 9.69379C132.362 9.70797 131.16 10.3196 131.16 10.3196C131.16 10.3196 132.63 13.4665 131.521 15.7552C131.521 15.7552 131.942 11.8765 130.7 10.5471L128.94 11.5767C128.94 11.5767 130.658 14.8278 129.493 17.4812C129.493 17.4812 129.792 13.412 128.568 11.8271L126.973 13.0735C126.973 13.0735 128.588 16.2768 127.604 18.4775C127.604 18.4775 127.475 13.742 126.628 13.3841C126.628 13.3841 125.232 14.6183 125.019 15.1224C125.019 15.1224 126.125 17.4496 125.438 18.6767C125.438 18.6767 125.017 15.5209 124.672 15.5032C124.672 15.5032 123.281 17.5941 123.137 19.0293C123.137 19.0293 123.197 16.8977 124.336 15.3058C124.336 15.3058 122.991 15.5368 122.206 16.4087C122.206 16.4087 122.422 14.9313 124.679 14.8009C124.679 14.8009 125.829 13.2141 126.135 13.119C126.135 13.119 123.892 12.9299 122.531 13.5351C122.531 13.5351 123.728 12.1406 126.547 12.7752L128.123 11.4864C128.123 11.4864 125.169 11.0826 123.915 11.5288C123.915 11.5288 125.357 10.2947 128.547 11.1938L130.262 10.1677C130.262 10.1677 127.743 9.62462 126.243 9.8151C126.243 9.8151 127.827 8.96007 130.765 9.88742L131.998 9.33599C131.998 9.33599 130.153 8.97283 129.612 8.91469C129.072 8.85655 129.044 8.70845 129.044 8.70845C130.213 8.51329 131.413 8.64697 132.51 9.09462C132.51 9.09462 135.112 8.12377 135.068 7.95976Z" fill="#1D1D1D"/>
<path id="Path_177_2" fill-rule="evenodd" clip-rule="evenodd" d="M17.1192 22.4129C17.1192 22.4129 23.8786 9.17098 13.662 6.60525C13.662 6.60525 12.1208 5.54537 10.689 6.74248C10.689 6.74248 11.3833 7.07545 10.5441 8.34154C10.2501 8.7944 10.0097 9.27998 9.8277 9.78849C9.58057 10.4737 9.56249 11.2208 9.77619 11.9172V11.9172C9.77619 11.9172 9.6839 16.4315 15.2739 20.6502C15.2739 20.6502 16.1548 22.3464 16.524 22.4561L16.5474 19.7322C16.5474 19.7322 14.5512 19.793 13.4498 18.5679C13.4498 18.5679 16.4502 19.7935 16.5782 19.3242C16.604 19.2297 16.5263 17.8814 16.5263 17.8814C16.5263 17.8814 13.058 17.9692 11.4086 16.0344C11.4086 16.0344 14.7886 17.9746 16.5023 17.3686L16.2657 15.3407C16.2657 15.3407 12.6027 15.6146 10.6422 13.482C10.6422 13.482 14.2453 15.3868 16.1855 14.8996L15.6843 12.9367C15.6843 12.9367 12.1067 13.1343 10.4876 11.3495C10.4876 11.3495 14.8717 13.1292 15.5384 12.4955C15.5384 12.4955 14.9687 10.72 14.5928 10.3225C14.5928 10.3225 12.0207 10.4043 11.1732 9.28272C11.1732 9.28272 14.229 10.1613 14.3835 9.85165C14.3835 9.85165 13.0278 7.73775 11.7726 7.03016C11.7726 7.03016 13.6988 7.93928 14.6989 9.62213C14.6989 9.62213 15.0265 8.29552 14.5434 7.22569C14.5434 7.22569 15.8083 8.01631 15.0233 10.1394C15.0233 10.1394 16.0143 11.83 15.9786 12.1492C15.9786 12.1492 17.0504 10.1671 17.042 8.67598C17.042 8.67598 17.8381 10.3331 16.128 12.665L16.6758 14.6271C16.6758 14.6271 18.229 12.0785 18.323 10.7496C18.323 10.7496 18.8743 12.5671 16.7734 15.1337L17.0251 17.1183C17.0251 17.1183 18.5315 15.0244 18.9582 13.5718C18.9582 13.5718 19.1056 15.3682 17.0798 17.6925L17.0905 19.0442C17.0905 19.0442 18.162 17.4969 18.4318 17.0242C18.7016 16.5515 18.8484 16.5852 18.8484 16.5852C18.5585 17.7358 17.9554 18.7833 17.106 19.6109C17.106 19.6109 16.9515 22.3876 17.1192 22.4129Z" fill="#1D1D1D"/>
<path id="Path_178" d="M114.758 2.45302C114.758 2.45302 108.068 2.04921 108.849 6.74948C108.849 6.74948 108.692 7.57995 109.444 7.95713C109.444 7.95713 109.457 7.60452 110.133 7.72615C110.373 7.76663 110.617 7.77848 110.86 7.76145C111.188 7.73968 111.5 7.61086 111.749 7.39466V7.39466C111.749 7.39466 113.633 6.61541 114.365 3.53367C114.365 3.53367 114.905 2.86203 114.884 2.68919L113.754 3.17225C113.754 3.17225 114.139 3.98853 113.837 4.66727C113.837 4.66727 113.8 3.20202 113.583 3.23574C113.539 3.23574 112.995 3.51934 112.995 3.51934C112.995 3.51934 113.661 4.94204 113.159 5.97527C113.159 5.97527 113.349 4.22281 112.787 3.62159L111.992 4.09425C111.992 4.09425 112.768 5.5628 112.242 6.76177C112.242 6.76177 112.377 4.92297 111.824 4.20721L111.104 4.77141C111.104 4.77141 111.833 6.21885 111.389 7.21348C111.389 7.21348 111.33 5.07312 110.948 4.911C110.948 4.911 110.317 5.46811 110.22 5.69735C110.22 5.69735 110.72 6.75516 110.411 7.30344C110.411 7.30344 110.22 5.87711 110.058 5.86971C110.058 5.86971 109.43 6.81503 109.365 7.45642C109.396 6.85808 109.583 6.27833 109.907 5.77455C109.544 5.84335 109.21 6.01678 108.944 6.27352C108.944 6.27352 109.043 5.60534 110.062 5.5472C110.062 5.5472 110.59 4.8297 110.721 4.78559C110.721 4.78559 109.707 4.70098 109.092 4.97465C109.092 4.97465 109.632 4.34523 110.905 4.63087L111.61 4.04903C111.61 4.04903 110.274 3.87099 109.707 4.0673C109.707 4.0673 110.359 3.5102 111.801 3.91574L112.575 3.45206C112.575 3.45206 111.436 3.20707 110.759 3.29451C110.759 3.29451 111.475 2.90835 112.803 3.32602L113.357 3.0774C113.357 3.0774 112.523 2.91339 112.278 2.88692C112.032 2.86045 112.021 2.79349 112.021 2.79349C112.549 2.70545 113.092 2.76649 113.588 2.96979C113.588 2.96979 114.778 2.52644 114.758 2.45302Z" fill="#3F3D56"/>
<path id="Path_224" d="M11.5905 74.2079C11.5905 74.2079 4.90056 73.8041 5.68217 78.5044C5.68217 78.5044 5.52484 79.3348 6.27719 79.712C6.27719 79.712 6.28946 79.3594 6.9655 79.481C7.2056 79.5215 7.44964 79.5334 7.69252 79.5163C8.02092 79.4946 8.33318 79.3657 8.58159 79.1495V79.1495C8.58159 79.1495 10.4653 78.3703 11.1977 75.2886C11.1977 75.2886 11.7381 74.6169 11.7168 74.4441L10.5866 74.9271C10.5866 74.9271 10.9722 75.7434 10.6693 76.4221C10.6693 76.4221 10.6324 74.9569 10.4159 74.9906C10.3718 74.9906 9.82779 75.2742 9.82779 75.2742C9.82779 75.2742 10.4933 76.6969 9.99157 77.7302C9.99157 77.7302 10.1816 75.9777 9.62012 75.3765L8.82435 75.8491C8.82435 75.8491 9.60076 77.3177 9.07434 78.5167C9.07434 78.5167 9.20996 76.6779 8.65711 75.9621L7.93701 76.5263C7.93701 76.5263 8.66592 77.9737 8.22225 78.9684C8.22225 78.9684 8.16246 76.828 7.78031 76.6659C7.78031 76.6659 7.15005 77.223 7.05314 77.4522C7.05314 77.4522 7.55313 78.51 7.24335 79.0583C7.24335 79.0583 7.05314 77.632 6.89124 77.6246C6.89124 77.6246 6.26271 78.5699 6.19758 79.2113C6.22906 78.613 6.41599 78.0332 6.73989 77.5294C6.3772 77.5982 6.04248 77.7717 5.77688 78.0284C5.77688 78.0284 5.87553 77.3602 6.89486 77.3021C6.89486 77.3021 7.42302 76.5846 7.55328 76.5405C7.55328 76.5405 6.5393 76.4559 5.92477 76.7295C5.92477 76.7295 6.4652 76.1001 7.73815 76.3858L8.44235 75.8039C8.44235 75.8039 7.10663 75.6259 6.54024 75.8222C6.54024 75.8222 7.19159 75.2651 8.63351 75.6706L9.40819 75.2069C9.40819 75.2069 8.26913 74.9619 7.59136 75.0494C7.59136 75.0494 8.30784 74.6632 9.63538 75.0809L10.19 74.8323C10.19 74.8323 9.35612 74.6683 9.11068 74.6418C8.86525 74.6153 8.85361 74.5484 8.85361 74.5484C9.38211 74.4603 9.92464 74.5214 10.4204 74.7247C10.4204 74.7247 11.6111 74.2813 11.5905 74.2079Z" fill="#3F3D56"/>
</g>
</svg>
