<svg width="22" height="22" viewBox="0 0 22 22" fill="none" xmlns="http://www.w3.org/2000/svg">
<g id="Frame" clip-path="url(#clip0_186_535)">
<path id="Vector" d="M21.395 14.3882C21.373 14.3772 19.734 12.9252 19.712 11.0112C19.701 9.84523 20.273 8.72323 21.428 7.65623C21.626 7.46923 21.67 7.16123 21.538 6.93023C20.218 4.74123 19.998 4.30123 19.965 4.23523C19.855 3.94923 19.558 3.79523 19.261 3.88323C19.239 3.89423 16.841 4.53223 15.081 3.44323C14.135 2.86023 13.53 1.87023 13.255 0.48423C13.2 0.20923 12.958 0.0112305 12.683 0.0112305H9.40504C9.11904 0.0112305 8.87704 0.22023 8.83304 0.49523C8.83304 0.51723 8.45904 2.55223 6.86404 3.56423C5.83004 4.21323 4.47704 4.31223 2.86004 3.86123C2.60704 3.79523 2.34304 3.89423 2.21104 4.12523C0.70404 6.62223 0.50604 6.94123 0.47304 6.98523C0.29704 7.24923 0.37404 7.60123 0.62704 7.77723C0.63804 7.78823 2.26604 8.95423 2.38704 10.7032C2.47504 11.8912 1.85904 13.1232 0.56104 14.3552C0.36304 14.5422 0.31904 14.8502 0.46204 15.0812L2.22204 17.9742C2.37604 18.2272 2.68404 18.3262 2.94804 18.2052C2.97004 18.1942 4.77404 17.4352 6.43504 18.2272C7.54604 18.7552 8.34904 19.8882 8.81104 21.5712C8.87704 21.8242 9.10804 22.0002 9.37204 22.0002H12.694C12.969 22.0002 13.211 21.8022 13.266 21.5272C13.266 21.5052 13.695 19.4372 15.334 18.4362C16.357 17.8092 17.666 17.7212 19.217 18.1612C19.47 18.2382 19.745 18.1282 19.877 17.8972C21.318 15.4332 21.483 15.1802 21.494 15.1582C21.483 15.1802 21.461 15.2022 21.439 15.2242C21.538 15.1142 21.593 14.9712 21.582 14.8172C21.582 14.6412 21.516 14.4982 21.395 14.3882ZM19.987 4.34523C19.987 4.31223 19.976 4.27923 19.965 4.24623C19.976 4.26823 19.987 4.30123 19.987 4.34523ZM10.978 15.4112C8.54704 15.4112 6.56704 13.4312 6.56704 11.0002C6.56704 8.56923 8.54704 6.58923 10.978 6.58923C13.409 6.58923 15.389 8.56923 15.389 11.0002C15.389 13.4312 13.409 15.4112 10.978 15.4112Z" fill="black"/>
<path id="Vector_2" d="M10.978 7.74414C9.18505 7.74414 7.72205 9.20714 7.72205 11.0001C7.72205 12.7931 9.18505 14.2561 10.978 14.2561C12.771 14.2561 14.234 12.7931 14.234 11.0001C14.223 9.20714 12.771 7.74414 10.978 7.74414Z" fill="black"/>
</g>
<defs>
<clipPath id="clip0_186_535">
<rect width="22" height="22" fill="white"/>
</clipPath>
</defs>
</svg>
