<svg width="24" height="24" viewBox="0 0 24 24" fill="none" xmlns="http://www.w3.org/2000/svg">
<g id="Frame">
<path id="Vector" d="M18.03 16.617L22.314 20.8995L20.8995 22.314L16.617 18.0315C15.2926 19.088 13.697 19.7494 12.0135 19.9397C10.33 20.1299 8.62705 19.8413 7.10027 19.107C5.57349 18.3727 4.2849 17.2224 3.38259 15.7885C2.48029 14.3546 2.0009 12.6952 1.99951 11.001C1.99951 6.03148 6.03151 2.00098 10.9995 2.00098C12.6936 2.0023 14.3529 2.48156 15.7867 3.38368C17.2206 4.2858 18.3709 5.57417 19.1053 7.10073C19.8398 8.6273 20.1286 10.3301 19.9387 12.0135C19.7487 13.6968 19.0877 15.2925 18.0315 16.617H18.03ZM16.0245 15.8745C16.9839 14.8877 17.6311 13.64 17.8849 12.2873C18.1388 10.9346 17.9882 9.53711 17.4519 8.26962C16.9155 7.00213 16.0173 5.92094 14.8697 5.16133C13.722 4.40171 12.3758 3.9974 10.9995 3.99898C10.0802 3.99878 9.16988 4.17973 8.32053 4.53149C7.47119 4.88324 6.69948 5.39891 6.0495 6.04903C5.39952 6.69914 4.88402 7.47096 4.53245 8.32038C4.18087 9.1698 4.00012 10.0802 4.00051 10.9995C3.99922 12.3755 4.40364 13.7213 5.16318 14.8687C5.92272 16.016 7.00368 16.914 8.27087 17.4502C9.53805 17.9865 10.9352 18.1373 12.2876 17.8837C13.6401 17.6301 14.8877 16.9834 15.8745 16.0245L16.0245 15.8745Z" fill="#111111"/>
</g>
</svg>
