<svg width="24" height="24" viewBox="0 0 24 24" fill="none" xmlns="http://www.w3.org/2000/svg">
<g id="withdraw 1" clip-path="url(#clip0_70_4217)">
<g id="Page 1">
<g id="withdrawal">
<path id="Rectangle" d="M3.69235 1.84615V3.69231H20.3077V1.84615H3.69235ZM3.69235 0H20.3077C21.3273 0 22.1539 0.826551 22.1539 1.84615V3.69231C22.1539 4.71191 21.3273 5.53846 20.3077 5.53846H3.69235C2.67274 5.53846 1.84619 4.71191 1.84619 3.69231V1.84615C1.84619 0.826551 2.67274 0 3.69235 0Z" fill="white"/>
<path id="Rectangle_2" d="M18.4617 5.53854H5.53863V21.2308C5.53863 21.7406 5.95191 22.1539 6.46171 22.1539H17.5386C18.0484 22.1539 18.4617 21.7406 18.4617 21.2308V5.53854ZM20.3079 21.2308C20.3079 22.7603 19.068 24.0001 17.5386 24.0001H6.46171C4.9323 24.0001 3.69248 22.7603 3.69248 21.2308V3.69238H20.3079V21.2308Z" fill="white"/>
<path id="Path 11" d="M15.6924 13.8463C15.6924 14.3561 15.2791 14.7694 14.7693 14.7694C14.2595 14.7694 13.8462 14.3561 13.8462 13.8463V11.5386C13.8462 11.2837 13.6396 11.0771 13.3847 11.0771C13.1298 11.0771 12.9232 11.2837 12.9232 11.5386V12.4617C12.9232 13.7362 11.89 14.7694 10.6155 14.7694C9.34096 14.7694 8.30777 13.7362 8.30777 12.4617V10.154C8.30777 9.64423 8.72104 9.23096 9.23084 9.23096C9.74065 9.23096 10.1539 9.64423 10.1539 10.154V12.4617C10.1539 12.7166 10.3606 12.9233 10.6155 12.9233C10.8704 12.9233 11.077 12.7166 11.077 12.4617V11.5386C11.077 10.2641 12.1102 9.23096 13.3847 9.23096C14.6592 9.23096 15.6924 10.2641 15.6924 11.5386V13.8463Z" fill="white"/>
<path id="Path 12" d="M16.6155 11.0771C17.1253 11.0771 17.5386 11.4904 17.5386 12.0002C17.5386 12.51 17.1253 12.9233 16.6155 12.9233H14.7693C14.2595 12.9233 13.8463 12.51 13.8463 12.0002C13.8463 11.4904 14.2595 11.0771 14.7693 11.0771H16.6155Z" fill="white"/>
<path id="Path 13" d="M7.38457 12.9233C6.87477 12.9233 6.46149 12.51 6.46149 12.0002C6.46149 11.4904 6.87477 11.0771 7.38457 11.0771H9.23073C9.74053 11.0771 10.1538 11.4904 10.1538 12.0002C10.1538 12.51 9.74053 12.9233 9.23073 12.9233H7.38457Z" fill="white"/>
<path id="Path 14" d="M12.9231 6.46162C12.9231 6.97142 12.5098 7.3847 12 7.3847C11.4902 7.3847 11.0769 6.97142 11.0769 6.46162V4.61546C11.0769 4.10566 11.4902 3.69238 12 3.69238C12.5098 3.69238 12.9231 4.10566 12.9231 4.61546V6.46162Z" fill="white"/>
<path id="Path 14 Copy" d="M12.9231 19.3845C12.9231 19.8943 12.5098 20.3076 12 20.3076C11.4902 20.3076 11.0769 19.8943 11.0769 19.3845V17.5383C11.0769 17.0285 11.4902 16.6152 12 16.6152C12.5098 16.6152 12.9231 17.0285 12.9231 17.5383V19.3845Z" fill="white"/>
</g>
</g>
</g>
<defs>
<clipPath id="clip0_70_4217">
<rect width="24" height="24" fill="white"/>
</clipPath>
</defs>
</svg>
