<svg width="20" height="20" viewBox="0 0 20 20" fill="none" xmlns="http://www.w3.org/2000/svg">
<g id="Frame">
<path id="Subtract" fill-rule="evenodd" clip-rule="evenodd" d="M3.67188 1.91406H16.3281C17.2989 1.91406 18.0859 2.70105 18.0859 3.67188V16.3281C18.0859 17.2989 17.2989 18.0859 16.3281 18.0859H3.67188C2.70105 18.0859 1.91406 17.2989 1.91406 16.3281V3.67188C1.91406 2.70105 2.70105 1.91406 3.67188 1.91406ZM5.34781 8.48019C5.11963 8.25073 4.74864 8.24972 4.51918 8.47794C4.28975 8.70613 4.28871 9.07712 4.51694 9.30657L8.28956 13.0998C8.30067 13.1142 8.31255 13.1283 8.32521 13.1419C8.42354 13.2477 8.55186 13.309 8.68487 13.3248C8.85884 13.3478 9.0412 13.2927 9.17524 13.1594C9.19047 13.1442 9.2047 13.1285 9.21792 13.1121L15.4762 7.29576C15.7132 7.07547 15.7268 6.70473 15.5065 6.46768C15.2861 6.23065 14.9154 6.21709 14.6784 6.43738L8.7739 11.925L5.34781 8.48019Z" fill="#111111"/>
</g>
</svg>
