<svg width="20" height="20" viewBox="0 0 20 20" fill="none" xmlns="http://www.w3.org/2000/svg">
<g id="Frame">
<path id="Vector" d="M3.67188 3.08594C3.34826 3.08594 3.08594 3.34826 3.08594 3.67188V16.3281C3.08594 16.6517 3.34826 16.9141 3.67188 16.9141H16.3281C16.6517 16.9141 16.9141 16.6517 16.9141 16.3281V3.67188C16.9141 3.34826 16.6517 3.08594 16.3281 3.08594H3.67188ZM3.67188 1.91406H16.3281C17.2989 1.91406 18.0859 2.70105 18.0859 3.67188V16.3281C18.0859 17.2989 17.2989 18.0859 16.3281 18.0859H3.67188C2.70105 18.0859 1.91406 17.2989 1.91406 16.3281V3.67188C1.91406 2.70105 2.70105 1.91406 3.67188 1.91406Z" fill="#565656"/>
<path id="Vector_2" d="M5.34781 8.48019C5.11963 8.25073 4.74864 8.24972 4.51918 8.47794C4.28975 8.70613 4.28871 9.07712 4.51694 9.30657L8.3466 13.1571C8.57481 13.3866 8.9458 13.3876 9.17524 13.1594C9.40469 12.9312 9.4057 12.5602 9.1775 12.3308L5.34781 8.48017V8.48019Z" fill="#565656"/>
<path id="Vector_3" d="M15.4762 7.29576C15.7132 7.07547 15.7267 6.70473 15.5065 6.46768C15.2861 6.23065 14.9154 6.21709 14.6784 6.43738L8.35552 12.3138C8.11847 12.5341 8.10489 12.9048 8.32521 13.1419C8.54552 13.3789 8.91626 13.3925 9.15329 13.1722L15.4762 7.29576Z" fill="#565656"/>
</g>
</svg>
